<?xml version="1.0" ?><svg id="Layer_1" style="enable-background:new 0 0 66 66;" version="1.1" viewBox="0 0 66 66" xml:space="preserve" xmlns="http://www.w3.org/2000/svg" xmlns:xlink="http://www.w3.org/1999/xlink"><g><path d="M28.88,27.35c0-0.73-0.59-1.33-1.33-1.33c-0.73,0-1.33,0.6-1.33,1.33c0,0.74,0.6,1.33,1.33,1.33   C28.29,28.69,28.88,28.1,28.88,27.35z"/><path d="M38.46,28.69c0.74,0,1.33-0.59,1.33-1.33c0-0.73-0.59-1.33-1.33-1.33c-0.73,0-1.33,0.6-1.33,1.33   C37.12,28.1,37.72,28.69,38.46,28.69z"/><path d="M33,36.21c0.87,0,1.74-0.33,2.4-0.99c0.2-0.19,0.2-0.51,0-0.71c-0.2-0.2-0.51-0.2-0.71,0c-0.94,0.93-2.46,0.93-3.4,0   c-0.19-0.19-0.51-0.19-0.71,0c-0.19,0.2-0.19,0.51,0,0.71C31.26,35.88,32.13,36.21,33,36.21z"/><path d="M33,32.14c0.83,0,1.5-0.67,1.5-1.5c0-0.28-0.22-0.5-0.5-0.5s-0.5,0.22-0.5,0.5c0,0.27-0.22,0.5-0.5,0.5s-0.5-0.22-0.5-0.5   c0-0.28-0.22-0.5-0.5-0.5s-0.5,0.22-0.5,0.5C31.5,31.47,32.17,32.14,33,32.14z"/><path d="M33,12.4c-1.05,0-1.91,0.86-1.91,1.91c0,1.06,0.86,1.92,1.91,1.92c1.05,0,1.91-0.86,1.91-1.92   C34.91,13.26,34.05,12.4,33,12.4z M33,15.23c-0.5,0-0.91-0.41-0.91-0.92c0-0.5,0.41-0.91,0.91-0.91s0.91,0.41,0.91,0.91   C33.91,14.82,33.5,15.23,33,15.23z"/><path d="M61.29,62.72h-4.41v-9.53c0-4.09-2.61-7.67-6.5-8.93l-5.36-1.74c0,0-0.01,0-0.01-0.01l-1.81-0.59l-3.11-1.01v-3.35   c2.04-2.03,3.57-4.9,4.23-8.24c1.39-0.64,2.31-2.06,2.31-3.62c0-0.32-0.05-0.64-0.13-0.95l0.7,0c0,0,0.01,0,0.01,0   c0.64,0,1.25-0.25,1.71-0.7c0.46-0.46,0.71-1.06,0.71-1.71c0-0.65-0.25-1.26-0.7-1.72c-0.46-0.46-1.06-0.71-1.71-0.72l-0.28,0   v-1.19c0-1.53-0.25-3.02-0.73-4.44c0,0,0,0,0,0c0,0,0,0,0,0c-0.67-2.03-1.83-3.9-3.36-5.42c-0.2-0.2-0.41-0.4-0.61-0.56   c0,0,0,0,0,0c0,0,0,0,0,0C41,7.2,39.56,6.34,37.98,5.73v-1.4c0-1.13-0.92-2.04-2.04-2.04h-5.87c-1.13,0-2.04,0.92-2.04,2.04v1.4   C26.44,6.34,25,7.2,23.76,8.31c0,0,0,0,0,0c-1.84,1.62-3.22,3.69-3.97,5.98c0,0,0,0,0,0c0,0,0,0,0,0c0,0,0,0,0,0   c-0.49,1.42-0.73,2.91-0.73,4.44v1.1l-0.26,0c0,0-0.01,0-0.01,0c-1.33,0-2.42,1.08-2.42,2.41c0,1.34,1.08,2.43,2.41,2.43l0.74,0   c-0.09,0.34-0.15,0.68-0.15,1.04c0,1.56,0.92,2.98,2.31,3.62c0.66,3.34,2.19,6.21,4.23,8.24v3.35l-4.89,1.59l-5.4,1.75   c-3.89,1.25-6.5,4.84-6.5,8.93v9.53h-4.4c-0.28,0-0.5,0.22-0.5,0.5s0.22,0.5,0.5,0.5h4.9h20.37h6.03h20.37h4.91   c0.28,0,0.5-0.22,0.5-0.5S61.57,62.72,61.29,62.72z M42.76,42.84l1.32,0.43l-4.94,7.6c-0.13,0.21-0.34,0.35-0.58,0.39   c-0.24,0.05-0.49-0.01-0.69-0.15l-2.01-1.44l0,0l-2.11-1.51l3.29-3.47l2.7-2.84L42.76,42.84z M35.25,50.47l0.61,0.61l-1.58,1.58   h-2.57l-1.58-1.58l0.58-0.58L33,48.86L35.25,50.47z M26.9,41.09v-2.61c1,0.8,2.08,1.39,3.2,1.77c0,0,0.01,0,0.01,0   c0.28,0.1,0.57,0.18,0.86,0.24c0.05,0.01,0.1,0.02,0.15,0.03c0.25,0.05,0.5,0.09,0.75,0.13c0.07,0.01,0.13,0.02,0.2,0.03   c0.31,0.03,0.62,0.05,0.93,0.05c0.31,0,0.62-0.02,0.92-0.05c0.07-0.01,0.14-0.02,0.21-0.03c0.25-0.03,0.5-0.07,0.74-0.12   c0.06-0.01,0.11-0.02,0.17-0.04c0.28-0.06,0.56-0.14,0.83-0.23c0.02-0.01,0.03-0.01,0.05-0.02c0.92-0.31,1.8-0.77,2.65-1.37   c0.01-0.01,0.01-0.01,0.02-0.02c0.17-0.12,0.35-0.25,0.51-0.38v2.61l-3.19,3.37L33,47.52L26.9,41.09z M42.15,9.58   c1.3,1.29,2.29,2.86,2.93,4.56l-5.02,1.67l2.08-6.24C42.14,9.58,42.15,9.58,42.15,9.58z M23.87,9.61l2.07,6.21l-5.02-1.67   C21.56,12.45,22.57,10.91,23.87,9.61z M20.05,18.73c0-1.25,0.19-2.47,0.54-3.64l5.98,1.99c0.05,0.02,0.1,0.03,0.16,0.03   c0.13,0,0.26-0.05,0.35-0.15c0.13-0.13,0.18-0.33,0.12-0.51l-2.53-7.59c1-0.85,2.12-1.53,3.35-2.04v3.33c0,0.28,0.22,0.5,0.5,0.5   s0.5-0.22,0.5-0.5V4.33c0-0.58,0.47-1.04,1.04-1.04h5.87c0.58,0,1.04,0.47,1.04,1.04v5.81c0,0.28,0.22,0.5,0.5,0.5   s0.5-0.22,0.5-0.5V6.81C39.2,7.32,40.32,8,41.33,8.85l-2.53,7.59c-0.06,0.18-0.01,0.38,0.12,0.51c0.1,0.1,0.22,0.15,0.35,0.15   c0.05,0,0.11-0.01,0.16-0.03l5.98-1.99c0.35,1.17,0.54,2.39,0.54,3.64v1.1H20.05V18.73z M18.78,23.68c-0.78,0-1.42-0.64-1.42-1.43   c0-0.38,0.15-0.74,0.42-1c0.27-0.27,0.62-0.41,1-0.41c0,0,0,0,0.01,0l28.43,0.09c0.78,0,1.42,0.64,1.42,1.43v0   c0,0.38-0.15,0.74-0.42,1c-0.27,0.27-0.62,0.41-1,0.41c0,0,0,0-0.01,0L18.78,23.68z M22.61,28.89c-0.04-0.17-0.15-0.32-0.32-0.38   c-1.15-0.43-1.92-1.55-1.92-2.79c0-0.36,0.06-0.71,0.18-1.04l24.92,0.08c0.11,0.31,0.16,0.63,0.16,0.96c0,1.24-0.77,2.36-1.92,2.79   c-0.16,0.06-0.31,0.2-0.32,0.38C42.92,39.01,27.08,46.58,22.61,28.89z M26.25,41.86l5.99,6.31l-4.12,2.95   c-0.2,0.14-0.44,0.2-0.69,0.15c-0.24-0.05-0.45-0.19-0.58-0.39l-4.94-7.6L26.25,41.86z M29.55,62.72H10.11v-9.53   c0-3.65,2.33-6.86,5.81-7.98l5-1.62l5.09,7.83c0.28,0.44,0.72,0.73,1.24,0.83c0.12,0.02,0.24,0.03,0.36,0.03   c0.39,0,0.77-0.12,1.1-0.35l0.5-0.36l1.76,1.76L29.55,62.72z M30.56,62.72l1.37-9.06h2.14l1.37,9.06H30.56z M55.88,62.72H36.44   l-1.42-9.39l1.76-1.76l0.5,0.36c0.33,0.23,0.71,0.35,1.1,0.35c0.12,0,0.24-0.01,0.36-0.03c0.51-0.1,0.95-0.39,1.24-0.83l5.09-7.83   l5,1.62c0,0,0,0,0,0c3.48,1.12,5.81,4.32,5.81,7.98V62.72z"/></g></svg>