<?xml version="1.0" ?><svg id="Layer_1" style="enable-background:new 0 0 66 66;" version="1.1" viewBox="0 0 66 66" xml:space="preserve" xmlns="http://www.w3.org/2000/svg" xmlns:xlink="http://www.w3.org/1999/xlink"><g><path d="M33,26.3c3.48,0,6.3-2.83,6.3-6.31c0-3.48-2.83-6.3-6.3-6.3c-3.48,0-6.31,2.83-6.31,6.3C26.69,23.46,29.52,26.3,33,26.3z    M33,14.68c2.92,0,5.3,2.38,5.3,5.3c0,2.93-2.38,5.31-5.3,5.31c-2.93,0-5.31-2.38-5.31-5.31C27.69,17.06,30.07,14.68,33,14.68z"/><path d="M53.17,49.65H38.38c-0.15,0-0.3,0.07-0.39,0.19c-0.09,0.12-0.13,0.28-0.09,0.43l2.02,8.49c0.21,0.87,0.98,1.48,1.87,1.48   h9.95c1.06,0,1.93-0.87,1.93-1.93v-8.15C53.67,49.87,53.45,49.65,53.17,49.65z M52.67,58.3c0,0.51-0.42,0.93-0.93,0.93h-9.95   c-0.43,0-0.8-0.29-0.9-0.71l-1.88-7.87h13.66V58.3z"/><path d="M27.62,49.65H12.83c-0.28,0-0.5,0.22-0.5,0.5v8.15c0,1.06,0.86,1.93,1.93,1.93h9.95c0.9,0,1.67-0.61,1.88-1.48l2.02-8.49   c0.04-0.15,0-0.31-0.09-0.43C27.92,49.72,27.77,49.65,27.62,49.65z M25.11,58.52c-0.1,0.42-0.47,0.71-0.9,0.71h-9.95   c-0.51,0-0.93-0.42-0.93-0.93v-7.65h13.66L25.11,58.52z"/><path d="M58.41,49.87h-0.46V49.5c0-2.27-1.85-4.12-4.12-4.12H12.18c-2.27,0-4.12,1.85-4.12,4.12v0.37H7.59   c-2.04,0-3.69,1.66-3.69,3.69c0,2.04,1.66,3.69,3.69,3.69h0.46v1.05c0,3.42,2.78,6.2,6.2,6.2h9.95c2.88,0,5.36-1.96,6.03-4.76   l1.48-6.22h2.56l1.48,6.23c0.67,2.8,3.15,4.76,6.03,4.76h9.95c3.42,0,6.2-2.78,6.2-6.2v-1.05h0.46c2.04,0,3.69-1.66,3.69-3.69   C62.1,51.52,60.44,49.87,58.41,49.87z M7.59,56.25c-1.49,0-2.69-1.21-2.69-2.69c0-1.49,1.21-2.69,2.69-2.69h0.46v5.39H7.59z    M56.94,58.3c0,2.87-2.33,5.2-5.2,5.2h-9.95c-2.42,0-4.5-1.64-5.06-3.99l-1.58-6.61c-0.05-0.23-0.25-0.38-0.49-0.38h-3.35   c-0.23,0-0.43,0.16-0.49,0.38l-1.58,6.61c-0.56,2.35-2.64,3.99-5.06,3.99h-9.95c-2.87,0-5.2-2.33-5.2-5.2v-1.55v-6.39V49.5   c0-1.72,1.4-3.12,3.12-3.12h41.63c1.72,0,3.12,1.4,3.12,3.12v0.87v6.39V58.3z M58.41,56.25h-0.46v-5.39h0.46   c1.49,0,2.69,1.21,2.69,2.69C61.1,55.05,59.89,56.25,58.41,56.25z"/><path d="M60.09,34.12l-0.97,0v-2.55c0-2.89-0.46-5.68-1.37-8.32c-0.08-0.25-0.17-0.49-0.26-0.71c-1.14-3.18-2.9-6.07-5.23-8.59   c0,0,0,0,0,0c0,0,0,0-0.01-0.01c0,0,0,0,0,0c-0.25-0.28-0.51-0.56-0.78-0.83c-0.42-0.42-0.8-0.77-1.15-1.06   c-2.87-2.58-6.34-4.49-10.04-5.57V3.9c0-1.32-1.07-2.4-2.4-2.4h-9.75c-1.32,0-2.4,1.07-2.4,2.4v2.58   c-3.71,1.08-7.17,2.99-10.04,5.56c-0.68,0.6-1.34,1.25-1.95,1.92c-1.11,1.19-2.08,2.47-2.93,3.83c-0.04,0.06-0.09,0.12-0.13,0.19   c-0.13,0.21-0.23,0.43-0.35,0.64c-0.3,0.52-0.6,1.03-0.85,1.57c-0.13,0.26-0.22,0.55-0.34,0.82c-0.22,0.5-0.45,1-0.64,1.52   c0,0,0,0,0,0c0,0,0,0,0,0.01c0,0,0,0,0,0c-0.09,0.23-0.16,0.46-0.25,0.71c-0.92,2.66-1.38,5.46-1.38,8.32v2.56l-0.95-0.01   c-1.09,0-2.16,0.42-2.95,1.21c-0.79,0.78-1.23,1.83-1.23,2.94c-0.01,2.3,1.85,4.17,4.15,4.18l54.17,0.17c0.01,0,0.01,0,0.02,0   c1.11,0,2.15-0.43,2.93-1.21c0.79-0.78,1.23-1.83,1.23-2.94C64.26,36.12,62.35,34.13,60.09,34.12z M52.07,15.28   c0.22,0.25,0.43,0.5,0.64,0.76c0.17,0.21,0.35,0.43,0.51,0.64c0.36,0.48,0.69,0.97,1,1.47c0.09,0.14,0.19,0.27,0.27,0.41   c0.39,0.65,0.76,1.32,1.09,2.01c0.08,0.16,0.14,0.33,0.21,0.49c0.2,0.44,0.38,0.88,0.55,1.33l-7.48,2.49L52.07,15.28z M49.66,12.8   c0.34,0.28,0.7,0.61,1.1,1.01c0.19,0.19,0.37,0.39,0.56,0.59L47.6,25.52c-0.06,0.18-0.01,0.38,0.12,0.51   c0.1,0.1,0.22,0.15,0.35,0.15c0.05,0,0.11-0.01,0.16-0.03l8.48-2.82c0.03,0.08,0.06,0.16,0.09,0.23c0,0,0,0,0,0.01   c0.87,2.53,1.32,5.22,1.32,8v2.54H40.27v-5.95c2.34-2.08,3.68-5.05,3.68-8.18c0-3.12-1.34-6.09-3.68-8.17v-4.3   C43.73,8.56,46.96,10.38,49.66,12.8z M26.55,12.42c1.8-1.54,4.09-2.38,6.45-2.38c2.35,0,4.64,0.85,6.44,2.38   c2.23,1.9,3.5,4.66,3.5,7.56c0,2.91-1.28,5.67-3.5,7.57c-1.8,1.54-4.09,2.38-6.44,2.38c-2.36,0-4.65-0.85-6.45-2.38   c-2.23-1.9-3.5-4.66-3.5-7.57C23.05,17.08,24.33,14.32,26.55,12.42z M26.73,28.95c1.83,1.29,4.03,1.98,6.28,1.98   c2.24,0,4.43-0.7,6.26-1.98v5.15H26.73V28.95z M26.73,3.9c0-0.77,0.63-1.4,1.4-1.4h9.75c0.77,0,1.4,0.63,1.4,1.4v2.95v4.17   c-1.83-1.28-4.02-1.98-6.26-1.98c-2.25,0-4.44,0.7-6.28,1.98V6.85V3.9z M10.2,21.08c0.08-0.17,0.14-0.35,0.23-0.52   c0.33-0.68,0.69-1.34,1.08-1.99c0.09-0.16,0.2-0.3,0.3-0.45c0.31-0.48,0.63-0.96,0.97-1.43c0.16-0.21,0.33-0.42,0.5-0.63   c0.2-0.26,0.42-0.51,0.63-0.75l3.21,9.59L9.64,22.4C9.82,21.95,10,21.51,10.2,21.08z M7.87,31.57c0-2.75,0.45-5.44,1.34-8.03   c0.02-0.07,0.05-0.14,0.07-0.2l8.48,2.82c0.05,0.02,0.1,0.03,0.16,0.03c0.13,0,0.26-0.05,0.35-0.15c0.13-0.13,0.18-0.33,0.12-0.51   l-3.71-11.09c0.53-0.57,1.09-1.12,1.68-1.64c2.68-2.41,5.91-4.23,9.37-5.28v4.3c-2.34,2.08-3.68,5.05-3.68,8.17   c0,3.13,1.34,6.1,3.68,8.18v5.95H7.87V31.57z M62.31,40.7c-0.6,0.59-1.39,0.92-2.23,0.92c0,0-0.01,0-0.01,0L5.9,41.44   c-1.74-0.01-3.16-1.43-3.15-3.17c0-0.84,0.33-1.64,0.93-2.23c0.6-0.6,1.36-0.95,2.24-0.92l1.05,0.01c0,0,0,0,0,0   c0.08,0,0.15-0.02,0.22-0.05c0.06,0.02,0.12,0.04,0.18,0.04H58.4c0.01,0,0.01,0,0.02,0l1.66,0.01c1.69,0.01,3.17,1.57,3.17,3.34   C63.25,39.31,62.91,40.1,62.31,40.7z"/></g></svg>