<?xml version="1.0" ?><svg id="Layer_1" style="enable-background:new 0 0 66 66;" version="1.1" viewBox="0 0 66 66" xml:space="preserve" xmlns="http://www.w3.org/2000/svg" xmlns:xlink="http://www.w3.org/1999/xlink"><g><path d="M52.28,19.35c0-1.43-1.15-2.58-2.57-2.58c-1.43,0-2.58,1.15-2.58,2.58c0,1.42,1.15,2.57,2.58,2.57   C51.13,21.92,52.28,20.76,52.28,19.35z"/><path d="M38.09,16.77c-1.43,0-2.58,1.15-2.58,2.58c0,1.42,1.15,2.57,2.58,2.57c1.42,0,2.57-1.15,2.57-2.57   C40.66,17.92,39.51,16.77,38.09,16.77z"/><path d="M57.83,2.09H29.97c-3.02,0-5.48,2.46-5.48,5.48v23.35c0,3.02,2.46,5.48,5.48,5.48h2.86c0.16,1.08,1.07,1.92,2.19,1.97v5.42   c0,3.54,2.09,6.59,5.09,8.02v1.76c0,1.38,0.73,2.58,1.8,3.24v2.12c0,0.54-0.44,0.97-0.98,0.97h-9.97c-0.54,0-0.97-0.44-0.97-0.97   V48.87c0-4.99-4.06-9.05-9.05-9.05c-4.99,0-9.05,4.06-9.05,9.05v9.04c0,1.1-0.9,2-2,2H4.69c-1.1,0-2,0.9-2,2s0.9,2,2,2h5.18   c3.31,0,6-2.69,6-6v-9.04c0-2.79,2.27-5.05,5.05-5.05c2.79,0,5.05,2.27,5.05,5.05v10.07c0,2.74,2.23,4.97,4.97,4.97h9.97   c2.74,0,4.98-2.23,4.98-4.97v-2.28c0.94-0.69,1.55-1.81,1.55-3.09v-1.65c3.13-1.37,5.33-4.5,5.33-8.14v-5.42   c1.12-0.05,2.03-0.88,2.19-1.97h2.86c3.02,0,5.48-2.46,5.48-5.48V7.57C63.31,4.54,60.85,2.09,57.83,2.09z M44.9,58.94   c0,2.19-1.78,3.97-3.98,3.97h-9.97c-2.19,0-3.97-1.78-3.97-3.97V48.87c0-3.34-2.71-6.05-6.05-6.05c-3.34,0-6.05,2.71-6.05,6.05   v9.04c0,2.76-2.24,5-5,5H4.69c-0.55,0-1-0.45-1-1s0.45-1,1-1h5.18c1.65,0,3-1.34,3-3v-9.04c0-4.44,3.61-8.05,8.05-8.05   c4.44,0,8.05,3.61,8.05,8.05v10.07c0,1.09,0.89,1.97,1.97,1.97h9.97c1.09,0,1.98-0.89,1.98-1.97v-1.7   c0.28,0.07,0.57,0.12,0.88,0.12c0.39,0,0.77-0.08,1.12-0.2V58.94z M46.45,53.57c0,1.54-1.2,2.8-2.68,2.8s-2.68-1.25-2.68-2.8v-1.36   c0.88,0.29,1.82,0.46,2.8,0.46c0.89,0,1.74-0.13,2.55-0.38V53.57z M51.78,43.79c0,4.35-3.54,7.88-7.88,7.88   c-4.35,0-7.88-3.54-7.88-7.88v-5.41h15.77V43.79z M52.68,37.38c-0.07,0-17.5,0-17.57,0c-0.73,0-1.32-0.59-1.32-1.32   c0-0.73,0.59-1.32,1.32-1.32h17.57c0.73,0,1.32,0.59,1.32,1.32C54,36.79,53.41,37.38,52.68,37.38z M48.91,24.29   c-1.35,0-2.46,1.1-2.46,2.46v4.38c-1.18,0.14-3.93,0.14-5.11,0v-4.38c0-1.35-1.1-2.46-2.46-2.46s-2.46,1.1-2.46,2.46v2.1   c-2.97-2.3-4.73-5.82-4.73-9.6c0-6.73,5.47-12.2,12.18-12.2c6.73,0,12.2,5.47,12.2,12.2c0,3.78-1.76,7.29-4.73,9.6v-2.1   C51.36,25.39,50.26,24.29,48.91,24.29z M50.36,26.75v6.99h-2.91v-6.99c0-0.8,0.65-1.46,1.46-1.46S50.36,25.94,50.36,26.75z    M46.45,32.13v1.61h-5.11v-1.61c0.65,0.07,1.59,0.1,2.54,0.1C44.84,32.23,45.79,32.2,46.45,32.13z M40.34,26.75v6.99h-2.91v-6.99   c0-0.8,0.65-1.46,1.46-1.46S40.34,25.94,40.34,26.75z M62.31,30.92c0,2.47-2.01,4.48-4.48,4.48H54.9   c-0.29-0.96-1.16-1.66-2.21-1.66h-1.32V30.1c3.58-2.47,5.73-6.49,5.73-10.85c0-7.28-5.92-13.2-13.2-13.2   c-7.27,0-13.18,5.92-13.18,13.2c0,4.35,2.14,8.38,5.73,10.85v3.64h-1.32c-1.05,0-1.93,0.7-2.21,1.66h-2.93   c-2.47,0-4.48-2.01-4.48-4.48V7.57c0-2.47,2.01-4.48,4.48-4.48h27.86c2.47,0,4.48,2.01,4.48,4.48V30.92z"/></g></svg>