<?xml version="1.0" ?><svg id="Layer_1" style="enable-background:new 0 0 66 66;" version="1.1" viewBox="0 0 66 66" xml:space="preserve" xmlns="http://www.w3.org/2000/svg" xmlns:xlink="http://www.w3.org/1999/xlink"><path d="M64.31,43.98l-7.55-28.97c-0.26-0.99-0.88-1.81-1.75-2.31c-0.87-0.51-1.89-0.66-2.87-0.4c-0.98,0.26-1.8,0.88-2.31,1.75  c-0.04,0.06-0.07,0.13-0.11,0.2l-0.01-0.04c-0.26-0.98-0.88-1.8-1.75-2.32c-0.87-0.51-1.89-0.65-2.88-0.4  c-0.97,0.25-1.74,0.86-2.24,1.64c0-0.23-0.01-0.46-0.05-0.69c-0.17-1-0.71-1.87-1.54-2.46c-0.82-0.59-1.83-0.82-2.83-0.65  c-0.07,0.01-0.15,0.03-0.22,0.04l0.31-0.44c0.59-0.82,0.82-1.83,0.65-2.82c-0.17-1-0.71-1.87-1.54-2.46  c-1.7-1.21-4.07-0.82-5.28,0.88l-1.8,2.52c-0.01-0.07-0.02-0.15-0.03-0.22c-0.18-1.09-0.83-2.04-1.78-2.62  c-1.68-1.03-3.93-0.52-5.12,1.15l-7.54,10.56l-0.43-2.57c-0.23-1.37-0.97-2.56-2.1-3.36c-1.13-0.8-2.5-1.12-3.86-0.89  c-1.36,0.22-2.56,0.97-3.36,2.1c-0.16,0.22-0.64,0.89-3.29,19.4c-0.28,1.96,0.44,3.89,1.9,5.19L2.1,39.78  c-1.03,1.43-0.69,3.44,0.74,4.46l11.3,8.07c0.56,0.4,1.21,0.59,1.86,0.59c1,0,1.98-0.47,2.61-1.34l2.9-4.06  c0.76,0.34,1.57,0.52,2.37,0.52c1.83,0,3.64-0.85,4.78-2.45l0.11-0.15c2.54,2.91,5.54,6.27,7.66,8.62c1.13,1.25,2.71,1.94,4.34,1.94  c0.28,0,0.57-0.03,0.85-0.07l1.24,4.74c0.37,1.44,1.68,2.39,3.1,2.39c0.27,0,0.54-0.03,0.81-0.1l13.43-3.5  c1.71-0.44,2.73-2.2,2.29-3.9l-1.26-4.82c1.03-0.5,1.88-1.29,2.47-2.3C64.48,47.07,64.7,45.49,64.31,43.98z M42.14,15.28  c0.05-0.07,0.08-0.15,0.13-0.23c0,0.08,0.01,0.16,0.01,0.24c-0.05,0.01-0.11,0.01-0.17,0.02L42.14,15.28z M17.82,51.01  c-0.72,1.01-2.12,1.24-3.13,0.52l-11.3-8.07C2.9,43.11,2.58,42.6,2.48,42c-0.1-0.59,0.04-1.19,0.39-1.67l2.82-3.95l14.77,10.55  c0.06,0.04,0.13,0.07,0.19,0.11L17.82,51.01z M27.87,45.01c-1.57,2.2-4.64,2.71-6.85,1.14L6,35.42c-1.5-1.07-2.27-2.87-2.01-4.69  c2.39-16.65,3-18.75,3.12-18.98c0.66-0.92,1.63-1.53,2.74-1.71c1.11-0.19,2.23,0.07,3.15,0.73c0.92,0.66,1.53,1.63,1.71,2.74  l0.62,3.7c0.03,0.19,0.18,0.34,0.36,0.39c0.19,0.04,0.38-0.03,0.5-0.19l8.21-11.5c0.9-1.26,2.59-1.65,3.85-0.89  c0.71,0.43,1.2,1.15,1.33,1.96c0.1,0.56,0.02,1.12-0.21,1.63c-0.01,0.01-0.02,0.01-0.02,0.02l-6.66,9.32  c-0.15,0.21-0.1,0.51,0.11,0.67c0.08,0.06,0.18,0.09,0.28,0.09c0.15,0,0.3-0.07,0.39-0.2L29.7,9.8c0.07-0.03,0.13-0.08,0.18-0.14  l3.26-4.56c0.91-1.27,2.68-1.57,3.95-0.66c0.62,0.44,1.03,1.1,1.15,1.84c0.12,0.75-0.05,1.5-0.49,2.11l-1.78,2.49c0,0,0,0,0,0  l-7.84,10.98c-0.15,0.21-0.1,0.51,0.11,0.67c0.08,0.06,0.18,0.09,0.28,0.09c0.15,0,0.3-0.07,0.39-0.2l7.84-10.98  c0.44-0.62,1.09-1.02,1.84-1.15c0.75-0.12,1.5,0.05,2.11,0.49c0.62,0.44,1.03,1.1,1.15,1.84c0.12,0.75-0.05,1.5-0.49,2.12  l-1.48,2.07c0,0,0,0,0,0l-6.36,8.9c-0.15,0.21-0.1,0.51,0.11,0.67c0.08,0.06,0.18,0.09,0.28,0.09c0.15,0,0.3-0.07,0.39-0.2l6.36-8.9  c0.91-1.27,2.68-1.57,3.95-0.66c0.62,0.44,1.03,1.1,1.15,1.84c0.13,0.74-0.05,1.49-0.49,2.11L27.87,45.01z M61.55,55.78  c0.31,1.2-0.41,2.43-1.61,2.74l-13.43,3.5c-1.2,0.31-2.43-0.41-2.74-1.61l-1.23-4.7l17.57-4.58c0.07-0.02,0.13-0.05,0.2-0.08  L61.55,55.78z M62.87,47.94c-0.66,1.13-1.73,1.94-3,2.27l-17.87,4.66c-1.78,0.46-3.65-0.1-4.88-1.46c-2.16-2.4-5.23-5.83-7.8-8.78  l9.94-13.92l0.04,0.16c0.06,0.21,0.25,0.36,0.46,0.36c0.04,0,0.08-0.01,0.12-0.02c0.25-0.07,0.41-0.33,0.34-0.58l-0.24-0.93  l4.34-6.08l1.45,5.56c0.06,0.21,0.25,0.36,0.46,0.36c0.04,0,0.08-0.01,0.12-0.02c0.26-0.07,0.41-0.33,0.34-0.58l-1.65-6.33l1-1.4  c0.59-0.83,0.82-1.83,0.65-2.82c-0.16-1-0.71-1.87-1.53-2.46c-0.59-0.42-1.26-0.63-1.93-0.68c-0.05-1.31,0.79-2.49,2.09-2.83  c0.73-0.19,1.5-0.09,2.15,0.3c0.65,0.38,1.12,1,1.31,1.73l0.64,2.47l2.76,10.59c0.06,0.21,0.25,0.36,0.46,0.36  c0.04,0,0.08-0.01,0.12-0.02c0.26-0.07,0.41-0.33,0.34-0.58l-2.76-10.59c-0.19-0.73-0.09-1.5,0.3-2.15c0.38-0.65,1-1.12,1.73-1.31  c0.74-0.19,1.5-0.09,2.15,0.3c0.65,0.38,1.11,0.99,1.31,1.73l7.55,28.97C63.72,45.49,63.53,46.81,62.87,47.94z"/></svg>