<?xml version="1.0" ?><svg id="Layer_1" style="enable-background:new 0 0 66 66;" version="1.1" viewBox="0 0 66 66" xml:space="preserve" xmlns="http://www.w3.org/2000/svg" xmlns:xlink="http://www.w3.org/1999/xlink"><g><path d="M47.32,21.83l1.22-2.04c0.36-0.62,0.46-1.35,0.27-2.05c-0.19-0.7-0.63-1.28-1.26-1.64c-0.62-0.36-1.35-0.45-2.05-0.27   c-0.7,0.19-1.28,0.63-1.63,1.25l-1.19,1.99c-1.96-0.88-4.06-1.5-6.26-1.82c2.84-1.3,4.83-4.17,4.83-7.5c0-4.55-3.7-8.25-8.25-8.25   s-8.25,3.7-8.25,8.25c0,3.33,1.98,6.2,4.83,7.5C18.1,18.92,9.25,28.82,9.25,40.75C9.25,53.85,19.91,64.5,33,64.5   s23.75-10.65,23.75-23.75C56.75,33.03,53.04,26.17,47.32,21.83z M44.73,17.59c0.23-0.39,0.59-0.67,1.03-0.79   c0.44-0.12,0.9-0.06,1.29,0.17c0.39,0.23,0.67,0.59,0.79,1.03c0.12,0.44,0.06,0.9-0.17,1.28l-1.16,1.95   c-0.05-0.03-0.09-0.06-0.14-0.09c-0.38-0.26-0.78-0.52-1.18-0.76c-0.12-0.07-0.25-0.14-0.37-0.21c-0.32-0.19-0.65-0.37-0.98-0.54   c-0.08-0.04-0.17-0.09-0.25-0.14L44.73,17.59z M25.75,9.75c0-4,3.25-7.25,7.25-7.25s7.25,3.25,7.25,7.25   c0,2.99-1.82,5.57-4.41,6.68v-3.85h0.82c1.02,0,1.85-0.83,1.85-1.85c0-1.02-0.83-1.85-1.85-1.85h-7.33c-1.02,0-1.85,0.83-1.85,1.85   c0,1.02,0.83,1.85,1.85,1.85h0.82v3.85C27.57,15.32,25.75,12.74,25.75,9.75z M29.33,11.57c-0.47,0-0.85-0.38-0.85-0.85   s0.38-0.85,0.85-0.85h7.33c0.47,0,0.85,0.38,0.85,0.85s-0.38,0.85-0.85,0.85H29.33z M34.84,12.57v4.19   c-0.57,0.15-1.17,0.24-1.79,0.24c-0.02,0-0.03,0-0.05,0s-0.03,0-0.05,0c-0.62,0-1.22-0.09-1.79-0.24v-4.19H34.84z M33,63.5   c-12.54,0-22.75-10.2-22.75-22.75c0-11.74,8.95-21.44,20.38-22.62c0.01,0,0.01,0,0.02,0c0.02,0,0.04-0.01,0.07-0.01   c0.73-0.07,1.47-0.11,2.23-0.11c0.02,0,0.03,0,0.05,0s0.03,0,0.05,0c0.75,0,1.49,0.04,2.23,0.11c0.02,0,0.04,0.01,0.07,0.01   c0.01,0,0.01,0,0.02,0c2.62,0.27,5.1,0.99,7.38,2.07c0.57,0.27,1.12,0.57,1.66,0.88c0.08,0.05,0.17,0.09,0.25,0.14   c0.53,0.32,1.04,0.66,1.54,1.02c5.77,4.13,9.55,10.88,9.55,18.51C55.75,53.3,45.54,63.5,33,63.5z"/><path d="M40.67,32.03L29.6,37.04c-0.06,0.03-0.17,0.13-0.22,0.17c-0.04,0.04-0.08,0.09-0.1,0.15l-5.02,11.06   c-0.14,0.31-0.07,0.66,0.16,0.9c0.15,0.15,0.36,0.24,0.56,0.24c0.11,0,0.23-0.02,0.33-0.07l11.06-5.02   c0.05-0.02,0.17-0.13,0.21-0.17s0.08-0.09,0.1-0.15l5.01-11.06c0.14-0.31,0.08-0.66-0.16-0.9C41.33,31.95,40.97,31.89,40.67,32.03z    M35.86,43.61L25.4,48.35l4.74-10.46l10.45-4.74L35.86,43.61z"/><path d="M33.01,42.55c0.99,0,1.79-0.81,1.79-1.8c0-0.99-0.8-1.79-1.79-1.79c-0.99,0-1.8,0.8-1.8,1.79   C31.21,41.74,32.01,42.55,33.01,42.55z M33.01,39.96c0.44,0,0.79,0.35,0.79,0.79c0,0.44-0.35,0.8-0.79,0.8   c-0.44,0-0.8-0.36-0.8-0.8C32.21,40.31,32.56,39.96,33.01,39.96z"/><path d="M49.96,31.08c-0.01-0.03-0.01-0.07-0.03-0.1c-0.02-0.04-0.05-0.06-0.08-0.09c-1.69-2.88-4.1-5.28-6.98-6.98   c-0.03-0.03-0.06-0.06-0.09-0.08c-0.03-0.02-0.06-0.02-0.1-0.03c-2.86-1.64-6.16-2.59-9.68-2.59c-3.52,0-6.82,0.95-9.68,2.59   c-0.03,0.01-0.07,0.01-0.1,0.03c-0.04,0.02-0.06,0.05-0.09,0.08c-2.88,1.69-5.28,4.1-6.98,6.98c-0.03,0.03-0.06,0.06-0.08,0.1   c-0.02,0.03-0.02,0.06-0.03,0.1c-1.64,2.86-2.59,6.16-2.59,9.68s0.95,6.82,2.59,9.68c0.01,0.03,0.01,0.07,0.03,0.1   c0.02,0.03,0.04,0.04,0.07,0.06c1.69,2.89,4.11,5.31,6.99,7.01c0.03,0.03,0.06,0.06,0.09,0.08c0.02,0.01,0.05,0.01,0.08,0.02   c2.86,1.64,6.17,2.6,9.7,2.6s6.84-0.95,9.7-2.6c0.03-0.01,0.05-0.01,0.08-0.02c0.04-0.02,0.06-0.05,0.09-0.08   c2.89-1.7,5.3-4.11,6.99-7.01c0.02-0.02,0.05-0.04,0.07-0.06c0.02-0.03,0.02-0.06,0.03-0.1c1.64-2.86,2.59-6.16,2.59-9.68   S51.6,33.93,49.96,31.08z M49.3,49.59l-2.44-1.41c-0.24-0.14-0.55-0.06-0.68,0.18c-0.14,0.24-0.06,0.54,0.18,0.68l2.42,1.4   c-1.53,2.48-3.62,4.57-6.09,6.09l-1.4-2.42c-0.14-0.24-0.45-0.32-0.68-0.18c-0.24,0.14-0.32,0.44-0.18,0.68l1.41,2.44   c-2.49,1.35-5.33,2.14-8.34,2.22v-2.81c0-0.28-0.22-0.5-0.5-0.5s-0.5,0.22-0.5,0.5v2.81c-3.01-0.08-5.85-0.86-8.34-2.22l1.41-2.44   c0.14-0.24,0.06-0.54-0.18-0.68c-0.24-0.14-0.55-0.06-0.68,0.18l-1.4,2.42c-2.48-1.53-4.57-3.62-6.09-6.09l2.42-1.4   c0.24-0.14,0.32-0.44,0.18-0.68c-0.14-0.24-0.45-0.32-0.68-0.18l-2.44,1.41c-1.35-2.49-2.14-5.33-2.22-8.34h2.81   c0.28,0,0.5-0.22,0.5-0.5s-0.22-0.5-0.5-0.5h-2.81c0.08-3.01,0.86-5.85,2.22-8.34l2.44,1.41c0.08,0.05,0.16,0.07,0.25,0.07   c0.17,0,0.34-0.09,0.43-0.25c0.14-0.24,0.06-0.54-0.18-0.68l-2.42-1.4c1.53-2.48,3.62-4.57,6.09-6.09l1.4,2.42   c0.09,0.16,0.26,0.25,0.43,0.25c0.08,0,0.17-0.02,0.25-0.07c0.24-0.14,0.32-0.44,0.18-0.68l-1.41-2.44   c2.49-1.35,5.33-2.14,8.34-2.22v2.81c0,0.28,0.22,0.5,0.5,0.5s0.5-0.22,0.5-0.5v-2.81c3.01,0.08,5.85,0.86,8.34,2.22l-1.41,2.44   c-0.14,0.24-0.06,0.54,0.18,0.68c0.08,0.05,0.16,0.07,0.25,0.07c0.17,0,0.34-0.09,0.43-0.25l1.4-2.42   c2.48,1.53,4.57,3.62,6.09,6.09l-2.42,1.4c-0.24,0.14-0.32,0.44-0.18,0.68c0.09,0.16,0.26,0.25,0.43,0.25   c0.08,0,0.17-0.02,0.25-0.07l2.44-1.41c1.35,2.49,2.14,5.33,2.22,8.34h-2.81c-0.28,0-0.5,0.22-0.5,0.5s0.22,0.5,0.5,0.5h2.81   C51.44,44.26,50.66,47.1,49.3,49.59z"/></g></svg>