<?xml version="1.0" ?><svg id="Layer_1" style="enable-background:new 0 0 66 66;" version="1.1" viewBox="0 0 66 66" xml:space="preserve" xmlns="http://www.w3.org/2000/svg" xmlns:xlink="http://www.w3.org/1999/xlink"><g><path d="M49.75,42.51c-1.2-1.2-3.16-1.2-4.36,0c-1.2,1.2-1.2,3.16,0,4.36l8.54,8.55c0.6,0.6,1.39,0.9,2.18,0.9   c0.79,0,1.58-0.3,2.18-0.9c1.2-1.2,1.2-3.16,0-4.36L49.75,42.51z M57.59,54.71c-0.81,0.81-2.14,0.81-2.95,0l-8.54-8.55   c-0.81-0.81-0.81-2.14,0-2.95c0.41-0.41,0.94-0.61,1.47-0.61c0.53,0,1.07,0.2,1.47,0.61l8.54,8.55   C58.4,52.57,58.4,53.89,57.59,54.71z"/><path d="M63.19,49.93c-0.26-0.37-0.55-0.73-0.88-1.06L49.95,36.51c-0.4-0.4-1.06-0.4-1.47,0l-0.1,0.1c-0.57,0.57-1.57,0.57-2.15,0   c-0.29-0.29-0.44-0.67-0.44-1.07s0.16-0.79,0.51-1.14c0.4-0.4,0.4-1.06,0-1.47l-1.38-1.38c-0.4-0.4-1.06-0.4-1.47,0l-2.54,2.54   l-3.69-3.69l7.58-7.58c0.86,0.81,2,1.28,3.18,1.28c0,0,0.01,0,0.01,0l1.06,0c-0.14,0.39-0.23,0.81-0.23,1.24   c0,0.99,0.39,1.92,1.09,2.62c0.7,0.7,1.63,1.09,2.62,1.09c0.99,0,1.92-0.39,2.62-1.09l5-5c1.45-1.45,1.45-3.8,0-5.24   c-1.04-1.04-2.55-1.32-3.86-0.86l0-1.06c0-1.23-0.49-2.43-1.36-3.29l-5.54-5.54c-4.17-4.17-10.95-4.17-15.12,0l-1.93,1.93   c-0.41,0.41-0.41,1.09,0.01,1.51c0.4,0.4,1.1,0.4,1.5,0l0.28-0.28c0.88-0.88,2.04-1.34,3.29-1.33c1.24,0.02,2.39,0.54,3.24,1.45   c1.64,1.76,1.55,4.62-0.2,6.38l-0.6,0.6c-0.2,0.2-0.2,0.51,0,0.71l0.96,0.96l-7.57,7.57l-8.38-8.38l-1-4.75   c-0.03-0.14-0.12-0.26-0.24-0.33l-7.93-4.52c-0.2-0.11-0.44-0.08-0.6,0.08l-3.71,3.71c-0.16,0.16-0.19,0.41-0.08,0.6l4.52,7.93   c0.07,0.12,0.19,0.21,0.33,0.24l4.75,1l8.38,8.38l-4.25,4.25l-2.54-2.54c-0.39-0.39-1.07-0.39-1.47,0l-1.38,1.38   c-0.4,0.4-0.4,1.06,0.07,1.53c0.29,0.29,0.44,0.67,0.44,1.07c0,0.4-0.16,0.79-0.44,1.07c-0.59,0.59-1.55,0.59-2.15,0l-0.1-0.1   c-0.4-0.4-1.06-0.4-1.47,0L3.69,49.43c-0.32,0.32-0.62,0.68-0.88,1.06c-2.04,2.96-1.67,6.96,0.88,9.5   c1.45,1.45,3.36,2.19,5.28,2.19c1.46,0,2.94-0.43,4.22-1.31c0.38-0.26,0.73-0.55,1.06-0.88l12.36-12.36c0.4-0.4,0.4-1.06,0-1.47   l-0.1-0.1c-0.29-0.29-0.44-0.67-0.44-1.07s0.16-0.79,0.44-1.07c0.59-0.59,1.55-0.59,2.21,0.07c0.4,0.4,1.06,0.4,1.47,0l1.38-1.38   c0.4-0.4,0.4-1.06,0-1.47l-2.54-2.54l4.25-4.25l3.69,3.69l-2.54,2.54c-0.4,0.4-0.4,1.06,0,1.47l1.38,1.38   c0.4,0.4,1.06,0.4,1.53-0.07c0.57-0.57,1.57-0.57,2.15,0c0.59,0.59,0.59,1.55,0,2.15l-0.1,0.1c-0.4,0.4-0.4,1.06,0,1.47   l12.36,12.36c0.33,0.33,0.68,0.62,1.06,0.88c1.28,0.88,2.75,1.31,4.22,1.31c1.93,0,3.84-0.74,5.29-2.19   C64.86,56.89,65.23,52.89,63.19,49.93z M57.56,17.62c0.69,0,1.39,0.26,1.92,0.79c1.06,1.06,1.06,2.77,0,3.83l-5,5   c-1.02,1.02-2.81,1.02-3.83,0c-0.51-0.51-0.79-1.19-0.79-1.92c0-0.72,0.28-1.4,0.79-1.91l5-5C56.17,17.89,56.86,17.62,57.56,17.62z    M41.19,17.31c2.13-2.13,2.23-5.61,0.23-7.77c-1.03-1.11-2.44-1.74-3.95-1.77c-1.49-0.03-2.94,0.55-4.02,1.62l-0.28,0.28   l-0.09-0.09l1.93-1.93c3.78-3.78,9.93-3.78,13.71,0l5.54,5.54c0.68,0.68,1.07,1.62,1.06,2.58l-0.01,1.54l-5.77,5.77l-1.54,0.01   c0,0-0.01,0-0.01,0c-0.96,0-1.89-0.39-2.57-1.06l-4.48-4.48L41.19,17.31z M21.54,21.21c-0.07-0.07-0.16-0.12-0.25-0.14l-4.68-0.98   l-4.22-7.4l3.17-3.17l7.4,4.22l0.98,4.68c0.02,0.09,0.07,0.18,0.14,0.25l8.48,8.48l-2.54,2.54L21.54,21.21z M30.86,41.9l-1.38,1.38   l-0.12-0.07c-0.98-0.98-2.58-0.98-3.56,0c-0.47,0.48-0.74,1.11-0.74,1.78s0.26,1.3,0.74,1.78l0.1,0.1c0.01,0.01,0.01,0.04,0,0.05   L13.54,59.28c-0.28,0.28-0.59,0.54-0.92,0.76c-2.56,1.76-6.02,1.44-8.23-0.76c-2.2-2.2-2.52-5.66-0.76-8.23   c0.22-0.33,0.48-0.63,0.76-0.92l12.41-12.36l0.1,0.1c0.98,0.98,2.58,0.98,3.56,0c0.47-0.48,0.74-1.11,0.74-1.78   c0-0.67-0.26-1.31-0.74-1.78l-0.07-0.12l1.43-1.38L30.86,41.9z M32.92,33.29C32.92,33.29,32.92,33.29,32.92,33.29l-4.6,4.6   l-2.54-2.54l4.6-4.6c0,0,0,0,0,0l3.25-3.25c0,0,0,0,0,0l7.92-7.93l2.54,2.54l-7.93,7.92c0,0,0,0,0,0L32.92,33.29z M33.99,33.65   l2.54-2.54l3.69,3.69l-2.54,2.54L33.99,33.65z M61.61,58.73c-2.2,2.2-5.67,2.52-8.23,0.76c-0.32-0.22-0.63-0.48-0.92-0.76   L40.1,46.31l0.1-0.1c0.98-0.98,0.98-2.58,0-3.56c-0.48-0.48-1.11-0.74-1.78-0.74c-0.67,0-1.31,0.26-1.78,0.74l0.29,0.42l-1.78-1.78   l9.08-9.03l1.38,1.38l0.35-0.35l-0.42,0.47c-0.48,0.48-0.74,1.11-0.74,1.78s0.26,1.3,0.74,1.78c0.95,0.95,2.61,0.95,3.56,0l0.1-0.1   c0.02-0.01,0.04-0.01,0.05,0l12.36,12.36c0.28,0.28,0.54,0.59,0.76,0.92C64.13,53.06,63.81,56.52,61.61,58.73z"/><path d="M16.25,43.06l-8.55,8.54c-1.2,1.2-1.2,3.16,0,4.36c0.6,0.6,1.39,0.9,2.18,0.9c0.79,0,1.58-0.3,2.18-0.9l8.55-8.55   c1.2-1.2,1.2-3.16,0-4.36S17.45,41.86,16.25,43.06z M19.91,46.72l-8.55,8.55c-0.81,0.81-2.14,0.81-2.95,0   c-0.81-0.81-0.81-2.14,0-2.95l8.55-8.54c0.41-0.41,0.94-0.61,1.47-0.61c0.53,0,1.07,0.2,1.47,0.61   C20.72,44.58,20.72,45.91,19.91,46.72z"/></g></svg>