<?xml version="1.0" ?><svg id="Layer_1" style="enable-background:new 0 0 66 66;" version="1.1" viewBox="0 0 66 66" xml:space="preserve" xmlns="http://www.w3.org/2000/svg" xmlns:xlink="http://www.w3.org/1999/xlink"><g><path d="M61.74,4.6L61.7,2.49c0-0.23-0.16-0.42-0.38-0.48l-2.05-0.5c-0.15-0.04-0.31,0-0.43,0.1l-8.82,7.05l-0.26-0.32   c-1.24-1.55-3.51-1.8-5.06-0.56l-3.01,2.41c-0.86,0.69-1,1.95-0.31,2.81l0.96,1.2l-2.65,2.12l-2.6-3.25   c-0.32-0.41-0.79-0.66-1.3-0.72c-0.51-0.05-1.02,0.09-1.43,0.41l-2.25,1.8l-0.54-0.67c-0.34-0.43-0.83-0.7-1.38-0.76   c-0.55-0.06-1.09,0.09-1.52,0.44L8.71,29.55c-5.12,4.09-5.95,11.59-1.86,16.7c2.34,2.93,5.8,4.45,9.29,4.45   c2.6,0,5.23-0.85,7.41-2.6l0.51-0.41l12.47,15.59c0.54,0.67,1.3,1.09,2.16,1.19c0.12,0.01,0.24,0.02,0.36,0.02   c0.73,0,1.43-0.25,2.01-0.71L55.2,52.49c0.67-0.54,1.09-1.3,1.19-2.16c0.1-0.85-0.15-1.7-0.69-2.37c-0.54-0.67-1.3-1.09-2.16-1.19   c-0.85-0.1-1.7,0.15-2.37,0.69l-6.79,5.44l-4.1-5.13l2.97-2.38c0.54-0.43,0.84-1.07,0.83-1.75c-0.01-0.68-0.33-1.31-0.87-1.73   l-6.11-4.63l6.43-5.14c0.43-0.34,0.7-0.84,0.76-1.38c0.06-0.55-0.1-1.09-0.44-1.52l-0.54-0.67l2.25-1.8   c0.84-0.67,0.97-1.9,0.3-2.74l-2.6-3.25l2.65-2.12l0.96,1.2c0.4,0.49,0.98,0.75,1.57,0.75c0.44,0,0.88-0.14,1.25-0.44l3.01-2.41   c1.55-1.24,1.8-3.51,0.56-5.06l-0.52-0.65L61.55,5C61.68,4.9,61.75,4.75,61.74,4.6z M43.91,53.91c0.17,0.22,0.49,0.25,0.7,0.08   l7.18-5.75c0.46-0.37,1.04-0.54,1.63-0.47c0.59,0.07,1.12,0.36,1.49,0.82c0.37,0.46,0.54,1.04,0.47,1.63s-0.36,1.12-0.82,1.49   L40.44,63.01c-0.46,0.37-1.04,0.54-1.63,0.47c-0.59-0.07-1.12-0.36-1.49-0.82L24.85,47.08l8.29-6.63l6.03,7.53   c0.01,0.01,0.01,0.02,0.01,0.03c0.01,0.01,0.02,0.01,0.02,0.02L43.91,53.91z M42.6,42.7c0.3,0.23,0.47,0.57,0.48,0.94   s-0.16,0.72-0.45,0.96l-2.97,2.38l-5.73-7.17l2.37-1.9L42.6,42.7z M42.9,31.35l-9.97,7.98c-0.01,0.01-0.02,0.01-0.03,0.02   c-0.01,0.01-0.01,0.02-0.02,0.03l-9.02,7.22c-0.01,0.01-0.02,0.01-0.03,0.01c-0.01,0.01-0.01,0.02-0.02,0.03l-0.87,0.7   c-4.68,3.75-11.55,2.99-15.3-1.7c-3.75-4.69-2.99-11.55,1.7-15.3L29.3,14.36c0.19-0.15,0.42-0.23,0.66-0.23   c0.04,0,0.08,0,0.12,0.01c0.28,0.03,0.54,0.17,0.71,0.39L42.22,28.8c0,0,0,0,0,0c0,0,0,0,0,0l0.85,1.06   c0.18,0.22,0.26,0.5,0.23,0.78C43.26,30.92,43.12,31.17,42.9,31.35z M45.08,24.66c0.33,0.41,0.26,1-0.15,1.33l-2.25,1.8   l-9.95-12.43l2.25-1.8c0.2-0.16,0.45-0.23,0.7-0.2c0.25,0.03,0.48,0.15,0.63,0.35l2.89,3.62c0.01,0.01,0.01,0.02,0.01,0.02   c0.01,0.01,0.01,0.01,0.02,0.01L42.15,21c0.01,0.01,0.01,0.02,0.01,0.03c0.01,0.01,0.01,0.01,0.02,0.02L45.08,24.66z M42.64,20   l-2.32-2.9l2.65-2.12l2.32,2.9L42.64,20z M52.07,16.98l-3.01,2.41c-0.43,0.35-1.07,0.28-1.41-0.16l-5.48-6.85   c-0.35-0.43-0.28-1.06,0.16-1.41l3.01-2.41c0.48-0.38,1.05-0.57,1.62-0.57c0.76,0,1.52,0.33,2.03,0.98l3.49,4.36   C53.37,14.45,53.19,16.09,52.07,16.98z M52.11,11.27l-1.46-1.83l8.62-6.9l1.43,0.35l0.03,1.48L52.11,11.27z"/><path d="M29.35,19.62c-0.17-0.22-0.49-0.25-0.7-0.08l-7.06,5.65c-0.22,0.17-0.25,0.49-0.08,0.7c0.1,0.12,0.24,0.19,0.39,0.19   c0.11,0,0.22-0.04,0.31-0.11l7.06-5.65C29.48,20.15,29.52,19.83,29.35,19.62z"/><path d="M32.16,23.13c-0.17-0.22-0.49-0.25-0.7-0.08l-7.06,5.65c-0.22,0.17-0.25,0.49-0.08,0.7c0.1,0.12,0.24,0.19,0.39,0.19   c0.11,0,0.22-0.04,0.31-0.11l7.06-5.65C32.29,23.66,32.33,23.35,32.16,23.13z"/><path d="M34.97,26.64c-0.17-0.22-0.49-0.25-0.7-0.08l-7.06,5.65c-0.22,0.17-0.25,0.49-0.08,0.7c0.1,0.12,0.24,0.19,0.39,0.19   c0.11,0,0.22-0.04,0.31-0.11l7.06-5.65C35.1,27.17,35.14,26.86,34.97,26.64z"/><path d="M37.07,30.08l-7.06,5.65c-0.22,0.17-0.25,0.49-0.08,0.7c0.1,0.12,0.24,0.19,0.39,0.19c0.11,0,0.22-0.04,0.31-0.11   l7.06-5.65c0.22-0.17,0.25-0.49,0.08-0.7C37.6,29.94,37.29,29.91,37.07,30.08z"/><path d="M16.96,32.57c-1.65-0.19-3.26,0.28-4.55,1.31c-1.29,1.03-2.1,2.5-2.28,4.15c-0.18,1.64,0.29,3.25,1.31,4.54   c1.22,1.53,3.03,2.33,4.85,2.33c1.35,0,2.71-0.44,3.85-1.35c1.29-1.03,2.1-2.51,2.28-4.15c0.18-1.64-0.29-3.26-1.32-4.55   C20.07,33.56,18.6,32.76,16.96,32.57z M12.23,41.94c-0.86-1.08-1.25-2.43-1.1-3.8c0.15-1.38,0.83-2.61,1.91-3.48   c0.92-0.74,2.05-1.13,3.22-1.13c0.02,0,0.04,0,0.06,0l-1.13,10.22C14.06,43.51,13,42.91,12.23,41.94z M21.42,39.29   c-0.15,1.38-0.83,2.61-1.91,3.48c-0.98,0.79-2.17,1.13-3.34,1.11l1.13-10.21c1.18,0.24,2.24,0.86,3,1.81   C21.18,36.56,21.58,37.91,21.42,39.29z"/></g></svg>