<?xml version="1.0" ?><svg id="Layer_1" style="enable-background:new 0 0 66 66;" version="1.1" viewBox="0 0 66 66" xml:space="preserve" xmlns="http://www.w3.org/2000/svg" xmlns:xlink="http://www.w3.org/1999/xlink"><g><path d="M25.1,10.77c0.09-0.1,0.14-0.24,0.13-0.38c-0.33-3.43-3.16-6.02-6.6-6.02c-0.63,0-1.26,0.09-1.86,0.26   c-1.54-1.71-3.71-2.68-6.02-2.68c-4.47,0-8.1,3.63-8.1,8.1c0,0.09,0.01,0.18,0.02,0.27l0.01,0.13c0.01,0.27,0.23,0.48,0.5,0.48   h21.55C24.87,10.94,25,10.88,25.1,10.77z M3.65,9.94c0.07-3.86,3.23-6.98,7.1-6.98c2.12,0,4.11,0.94,5.47,2.58   c0.13,0.16,0.35,0.22,0.55,0.15c0.6-0.21,1.22-0.31,1.86-0.31c2.73,0,5.01,1.93,5.52,4.56H3.65z"/><path d="M51.48,18.12c3.29,0,5.96-2.67,5.96-5.96S54.77,6.2,51.48,6.2c-3.28,0-5.95,2.67-5.95,5.96S48.2,18.12,51.48,18.12z    M51.48,7.2c2.74,0,4.96,2.23,4.96,4.96s-2.23,4.96-4.96,4.96c-2.73,0-4.95-2.23-4.95-4.96S48.75,7.2,51.48,7.2z"/><path d="M51.49,4.37c0.28,0,0.5-0.22,0.5-0.5V2.46c0-0.28-0.22-0.5-0.5-0.5s-0.5,0.22-0.5,0.5v1.42   C50.99,4.15,51.21,4.37,51.49,4.37z"/><path d="M50.99,20.44v1.42c0,0.28,0.22,0.5,0.5,0.5s0.5-0.22,0.5-0.5v-1.42c0-0.28-0.22-0.5-0.5-0.5S50.99,20.16,50.99,20.44z"/><path d="M57.35,6.8c0.13,0,0.26-0.05,0.35-0.15l1-1c0.2-0.2,0.2-0.51,0-0.71s-0.51-0.2-0.71,0l-1,1c-0.2,0.2-0.2,0.51,0,0.71   C57.09,6.75,57.22,6.8,57.35,6.8z"/><path d="M44.63,19.52c0.13,0,0.26-0.05,0.35-0.15l1-1c0.2-0.2,0.2-0.51,0-0.71s-0.51-0.2-0.71,0l-1,1c-0.2,0.2-0.2,0.51,0,0.71   C44.37,19.47,44.5,19.52,44.63,19.52z"/><path d="M59.77,12.66h1.42c0.28,0,0.5-0.22,0.5-0.5s-0.22-0.5-0.5-0.5h-1.42c-0.28,0-0.5,0.22-0.5,0.5S59.49,12.66,59.77,12.66z"/><path d="M41.79,12.66h1.42c0.28,0,0.5-0.22,0.5-0.5s-0.22-0.5-0.5-0.5h-1.42c-0.28,0-0.5,0.22-0.5,0.5S41.51,12.66,41.79,12.66z"/><path d="M57.7,17.66c-0.2-0.2-0.51-0.2-0.71,0s-0.2,0.51,0,0.71l1,1c0.1,0.1,0.23,0.15,0.35,0.15s0.26-0.05,0.35-0.15   c0.2-0.2,0.2-0.51,0-0.71L57.7,17.66z"/><path d="M45.28,6.65c0.1,0.1,0.23,0.15,0.35,0.15s0.26-0.05,0.35-0.15c0.2-0.2,0.2-0.51,0-0.71l-1-1c-0.2-0.2-0.51-0.2-0.71,0   s-0.2,0.51,0,0.71L45.28,6.65z"/><path d="M56.05,38.44c-0.27-0.32-0.66-0.5-1.08-0.5H49.8c-0.78,0-1.42,0.63-1.42,1.42v7.88c0,0.78,0.63,1.42,1.42,1.42h8.14   c0.78,0,1.41-0.63,1.41-1.42v-4.35c0-0.33-0.12-0.66-0.33-0.91L56.05,38.44z M58.35,47.23c0,0.23-0.19,0.42-0.41,0.42H49.8   c-0.23,0-0.42-0.19-0.42-0.42v-7.88c0-0.23,0.19-0.42,0.42-0.42h5.17c0.12,0,0.24,0.05,0.32,0.15l2.97,3.53   c0.06,0.07,0.1,0.17,0.1,0.27V47.23z"/><circle cx="19.5" cy="57.97" r="2.07"/><path d="M62.96,40.44l-4.98-5.91c-0.32-0.38-0.78-0.59-1.27-0.59H46.32c-1.07,0-1.94,0.87-1.94,1.94v13.27h-1.84V33.33   c0-0.28-0.22-0.5-0.5-0.5s-0.5,0.22-0.5,0.5v7.67h-4.88l2.93-6.67c0.81-1.85,0.38-4-1.07-5.35c-1.43-1.33-3-2.51-4.66-3.51   c0,0,0,0,0,0c-0.3-0.18-0.6-0.34-0.9-0.5c-0.94-0.53-1.88-1.01-2.83-1.41c-1.9-0.8-3.87-1.4-5.85-1.78   c-1.42-0.27-2.88-0.44-4.36-0.49c-0.55-0.03-1.1-0.03-1.66-0.02c-0.03-0.01-0.06-0.01-0.08-0.01L10.71,21   c-1.39-0.05-2.66,0.75-3.22,2.03l-3.63,8.24c-0.56,1.28-0.3,2.75,0.68,3.74l2.58,2.63v11.52h-0.7c-0.92,0-1.66,0.75-1.66,1.67v3.45   c0,1.5,1.22,2.72,2.72,2.72h6.05c-0.05,0.32-0.09,0.64-0.09,0.98c0,2.12,1.09,3.99,2.75,5.07H5.35c-0.28,0-0.5,0.22-0.5,0.5   s0.22,0.5,0.5,0.5h56.23c0.28,0,0.5-0.22,0.5-0.5s-0.22-0.5-0.5-0.5h-3.96c1.65-1.09,2.75-2.95,2.75-5.07   c0-0.33-0.03-0.66-0.09-0.98h0.35c1.5,0,2.72-1.22,2.72-2.72V41.51C63.35,41.12,63.22,40.74,62.96,40.44z M32.43,49.16   c0.61-0.48,1.12-1.1,1.45-1.84l2.34-5.33h5.33v7.17H32.43z M9.77,40.35c0.02,0.02,0.04,0.04,0.06,0.05   c0.37,0.42,0.75,0.83,1.13,1.21c1.03,1.06,2.15,2.03,3.31,2.89c0,0,0,0,0,0c1.62,1.21,3.39,2.25,5.26,3.11   c1.23,0.57,2.56,1.07,3.93,1.46c0,0,0,0,0,0c0,0,0,0,0,0c0,0,0,0,0,0c0.1,0.03,0.21,0.05,0.31,0.08H8.12v-10.5L9.77,40.35z    M20.22,22.31c0.58,0.03,1.16,0.06,1.73,0.13c0.12,0.01,0.23,0.03,0.35,0.05c0.39,0.05,0.78,0.11,1.17,0.18L14.38,43.3   c-0.31-0.24-0.62-0.49-0.93-0.75c-0.09-0.08-0.18-0.14-0.27-0.22c-0.43-0.38-0.85-0.78-1.26-1.19L20.22,22.31z M29.27,24.29   l-9.77,22.2c-1.52-0.73-2.96-1.58-4.3-2.55l9.28-21.09C26.1,23.17,27.71,23.66,29.27,24.29z M31.46,25.27   c0.04,0.02,0.07,0.03,0.11,0.05c0.47,0.24,0.93,0.51,1.39,0.78l-9.63,21.88c-0.51-0.16-1.02-0.32-1.52-0.5   c-0.03-0.01-0.06-0.03-0.1-0.04c-0.45-0.17-0.88-0.36-1.31-0.55l9.78-22.22C30.62,24.87,31.04,25.05,31.46,25.27z M38.68,33.92   l-3.25,7.37c0,0,0,0,0,0l-2.47,5.62c-0.64,1.46-2.12,2.36-3.67,2.23c-1.69-0.14-3.36-0.44-4.99-0.88l9.53-21.64   c1.42,0.9,2.78,1.93,4.02,3.08C38.99,30.77,39.32,32.46,38.68,33.92z M4.78,31.67l3.63-8.24c0.4-0.9,1.29-1.46,2.27-1.43l7.35,0.25   c0.05,0.01,0.09,0.02,0.14,0.02c0.32-0.01,0.65,0.01,0.97,0.01l-7.96,18.09c-0.22-0.24-0.45-0.46-0.66-0.71   c-0.03-0.03-0.07-0.06-0.1-0.09l-5.15-5.26C4.57,33.61,4.38,32.58,4.78,31.67z M7.48,55.99c-0.95,0-1.72-0.77-1.72-1.72v-3.45   c0-0.37,0.3-0.67,0.66-0.67h37.96v5.83H25.23c-0.82-2.38-3.08-4.09-5.73-4.09s-4.91,1.71-5.73,4.09H7.48z M14.44,57.97   c0-2.79,2.27-5.07,5.07-5.07s5.07,2.27,5.07,5.07c0,2.79-2.27,5.07-5.07,5.07S14.44,60.77,14.44,57.97z M22.82,63.04   c1.65-1.09,2.75-2.95,2.75-5.07c0-0.33-0.03-0.66-0.09-0.98h19.4h3.44c-0.05,0.32-0.09,0.64-0.09,0.98c0,2.12,1.09,3.99,2.75,5.07   H22.82z M54.31,63.04c-2.79,0-5.07-2.27-5.07-5.07c0-2.79,2.27-5.07,5.07-5.07s5.07,2.27,5.07,5.07   C59.37,60.77,57.1,63.04,54.31,63.04z M62.35,54.27c0,0.95-0.77,1.72-1.72,1.72h-0.6c-0.82-2.38-3.08-4.09-5.73-4.09   s-4.91,1.71-5.73,4.09h-3.2v-6.33V35.88c0-0.52,0.42-0.94,0.94-0.94h10.39c0.2,0,0.38,0.09,0.51,0.24l4.98,5.91   c0.1,0.12,0.16,0.27,0.16,0.43V54.27z"/><path d="M54.31,55.9c-1.14,0-2.07,0.93-2.07,2.07c0,1.14,0.93,2.07,2.07,2.07c1.14,0,2.07-0.93,2.07-2.07   C56.38,56.83,55.45,55.9,54.31,55.9z"/></g></svg>