<?xml version="1.0" ?><svg id="Layer_1" style="enable-background:new 0 0 66 66;" version="1.1" viewBox="0 0 66 66" xml:space="preserve" xmlns="http://www.w3.org/2000/svg" xmlns:xlink="http://www.w3.org/1999/xlink"><g><path d="M37.14,49.93c0.04,0.13,0.13,0.23,0.25,0.29c0.07,0.03,0.15,0.05,0.22,0.05c0.05,0,0.11-0.01,0.16-0.03l9.29-3.15   c0.26-0.09,0.4-0.37,0.31-0.63l-0.55-1.64c8.24-3.09,13.47-10.89,13.7-19.27c0.01-0.03,0.02-0.06,0.02-0.09   c0-0.03-0.01-0.06-0.02-0.09c0.04-2.36-0.28-4.76-1.08-7.11c-0.79-2.35-1.98-4.45-3.44-6.29c-0.02-0.03-0.03-0.07-0.05-0.1   c-0.02-0.03-0.06-0.05-0.09-0.07C50.61,5.28,41.72,2.25,33.3,4.78l-0.55-1.64c-0.04-0.13-0.13-0.23-0.25-0.29   c-0.12-0.06-0.26-0.07-0.38-0.03l-9.29,3.15c-0.26,0.09-0.4,0.37-0.31,0.63L37.14,49.93z M36.08,5.16l0.25,1.63   c0.04,0.25,0.25,0.42,0.49,0.42c0.03,0,0.05,0,0.08-0.01c0.27-0.04,0.46-0.3,0.42-0.57l-0.25-1.62c2.02-0.23,4.03-0.16,5.98,0.21   l-0.31,1.54c-0.05,0.27,0.12,0.53,0.39,0.59c0.03,0.01,0.07,0.01,0.1,0.01c0.23,0,0.44-0.16,0.49-0.4l0.3-1.52   c1.95,0.47,3.81,1.21,5.53,2.22l-0.78,1.28c-0.14,0.24-0.07,0.54,0.17,0.69c0.08,0.05,0.17,0.07,0.26,0.07   c0.17,0,0.33-0.09,0.43-0.24l0.78-1.28c1.66,1.08,3.16,2.41,4.45,3.94l-1.16,0.93c-0.22,0.17-0.25,0.49-0.08,0.7   c0.1,0.12,0.24,0.19,0.39,0.19c0.11,0,0.22-0.04,0.31-0.11l1.15-0.92c1.18,1.55,2.14,3.3,2.84,5.21l-1.4,0.47   c-0.26,0.09-0.4,0.37-0.31,0.63c0.07,0.21,0.26,0.34,0.47,0.34c0.05,0,0.11-0.01,0.16-0.03l1.4-0.47c0.6,1.95,0.89,3.92,0.9,5.87   l-1.48-0.03c-0.28,0-0.5,0.21-0.51,0.49c-0.01,0.28,0.21,0.51,0.49,0.51l1.49,0.03c-0.1,2-0.48,3.97-1.15,5.83l-1.41-0.55   c-0.26-0.1-0.55,0.03-0.65,0.28c-0.1,0.26,0.03,0.55,0.28,0.65L58,32.7c-0.76,1.84-1.79,3.56-3.06,5.11l-1.17-1.03   c-0.21-0.18-0.52-0.16-0.71,0.05c-0.18,0.21-0.16,0.52,0.04,0.71l1.18,1.04c-1.33,1.47-2.89,2.75-4.64,3.79l-0.79-1.44   c-0.13-0.24-0.44-0.33-0.68-0.2c-0.24,0.13-0.33,0.44-0.2,0.68l0.79,1.45c-0.73,0.39-1.48,0.75-2.28,1.04l-2.47-7.31   c6.12-2.41,9.35-9.28,7.23-15.56c-2.12-6.28-8.86-9.79-15.19-7.99L34.56,8.5l-0.94-2.79C34.43,5.47,35.25,5.3,36.08,5.16z    M43.72,35.62l-7.31-21.63c5.8-1.61,11.97,1.59,13.91,7.35C52.27,27.1,49.31,33.38,43.72,35.62z M31.96,3.94l0.54,1.61c0,0,0,0,0,0   l2.79,8.26c0,0,0,0,0,0l7.64,22.63c0,0,0,0,0,0l2.79,8.26c0,0,0,0,0,0l0.54,1.61l-8.34,2.83l-0.77-2.27l1.62-0.55   c0.26-0.09,0.4-0.37,0.31-0.63c-0.09-0.26-0.37-0.4-0.63-0.31l-1.62,0.55l-1.24-3.66l2.94-0.99c0.26-0.09,0.4-0.37,0.31-0.63   c-0.09-0.26-0.37-0.4-0.63-0.31l-2.94,0.99l-1.24-3.66l1.62-0.55c0.26-0.09,0.4-0.37,0.31-0.63c-0.09-0.26-0.37-0.4-0.63-0.31   l-1.62,0.55l-1.24-3.66l2.94-0.99c0.26-0.09,0.4-0.37,0.31-0.63c-0.09-0.26-0.37-0.4-0.63-0.31l-2.94,0.99l-1.24-3.66l1.62-0.55   c0.26-0.09,0.4-0.37,0.31-0.63c-0.09-0.26-0.37-0.4-0.63-0.31l-1.62,0.55l-1.24-3.66l2.94-0.99c0.26-0.09,0.4-0.37,0.31-0.63   c-0.09-0.26-0.37-0.4-0.63-0.31l-2.94,0.99l-1.24-3.66l1.62-0.55c0.26-0.09,0.4-0.37,0.31-0.63c-0.09-0.26-0.37-0.4-0.63-0.31   l-1.62,0.55l-1.24-3.66l2.94-0.99c0.26-0.09,0.4-0.37,0.31-0.63c-0.09-0.26-0.37-0.4-0.63-0.31l-2.94,0.99L24.7,9.99l1.62-0.55   c0.26-0.09,0.4-0.37,0.31-0.63C26.55,8.54,26.27,8.4,26,8.49l-1.62,0.55l-0.77-2.27L31.96,3.94z"/><path d="M57.38,51.97h-4.84H23.13c0,0,0,0,0,0c-0.01,0-0.01,0-0.02,0c-0.08,0-0.14,0.03-0.21,0.06c-0.01,0-0.02,0-0.03,0.01   l-4.53,2.72V2c0-0.28-0.22-0.5-0.5-0.5H3.43c-0.28,0-0.5,0.22-0.5,0.5v62c0,0.28,0.22,0.5,0.5,0.5h14.42c0.28,0,0.5-0.22,0.5-0.5   v-3.44l4.53,2.72c0.01,0.01,0.02,0,0.03,0.01c0.06,0.03,0.12,0.05,0.18,0.05c0.01,0,0.03,0.01,0.04,0.01c0,0,0.01,0,0.01,0h29.4   h4.84c3.14,0,5.69-2.55,5.69-5.69S60.52,51.97,57.38,51.97z M17.35,63.5H3.93v-3.67h1.89c0.28,0,0.5-0.22,0.5-0.5   s-0.22-0.5-0.5-0.5H3.93v-4.27h3.4c0.28,0,0.5-0.22,0.5-0.5s-0.22-0.5-0.5-0.5h-3.4V49.3h1.89c0.28,0,0.5-0.22,0.5-0.5   s-0.22-0.5-0.5-0.5H3.93v-4.27h3.4c0.28,0,0.5-0.22,0.5-0.5s-0.22-0.5-0.5-0.5h-3.4v-4.27h1.89c0.28,0,0.5-0.22,0.5-0.5   s-0.22-0.5-0.5-0.5H3.93V33.5h3.4c0.28,0,0.5-0.22,0.5-0.5s-0.22-0.5-0.5-0.5h-3.4v-4.27h1.89c0.28,0,0.5-0.22,0.5-0.5   s-0.22-0.5-0.5-0.5H3.93v-4.27h3.4c0.28,0,0.5-0.22,0.5-0.5s-0.22-0.5-0.5-0.5h-3.4V17.7h1.89c0.28,0,0.5-0.22,0.5-0.5   s-0.22-0.5-0.5-0.5H3.93v-4.27h3.4c0.28,0,0.5-0.22,0.5-0.5s-0.22-0.5-0.5-0.5h-3.4V7.17h1.89c0.28,0,0.5-0.22,0.5-0.5   s-0.22-0.5-0.5-0.5H3.93V2.5h13.42v52.86l-3.11,1.87c-0.15,0.09-0.24,0.25-0.24,0.43c0,0.18,0.09,0.34,0.24,0.43l3.11,1.87V63.5z    M22.63,61.97l-4.53-2.72c0,0,0,0,0,0l-2.64-1.59l2.64-1.59c0,0,0,0,0,0l4.53-2.72V61.97z M52.05,62.35H23.63v-4.19h28.41V62.35z    M52.05,57.16H23.63v-4.19h28.41V57.16z M57.38,62.35h-4.34v-9.38h4.34c2.59,0,4.69,2.1,4.69,4.69S59.97,62.35,57.38,62.35z"/></g></svg>