<?xml version="1.0" ?><svg id="Layer_1" style="enable-background:new 0 0 66 66;" version="1.1" viewBox="0 0 66 66" xml:space="preserve" xmlns="http://www.w3.org/2000/svg" xmlns:xlink="http://www.w3.org/1999/xlink"><g><path d="M64,63.5h-3.56V29.16h1.22c0.28,0,0.5-0.22,0.5-0.5v-5.13c0-0.28-0.22-0.5-0.5-0.5H33.48v-1.88h1.85   c0.28,0,0.5-0.22,0.5-0.5v-6.13c0-0.28-0.22-0.5-0.5-0.5H4.34c-0.28,0-0.5,0.22-0.5,0.5v6.13c0,0.28,0.22,0.5,0.5,0.5h1.85V63.5H2   c-0.28,0-0.5,0.22-0.5,0.5s0.22,0.5,0.5,0.5h4.69h26.29h26.95H64c0.28,0,0.5-0.22,0.5-0.5S64.28,63.5,64,63.5z M25.12,63.5H14.56   V48.64h10.57V63.5z M32.48,28.66V63.5h-6.36V48.14c0-0.28-0.22-0.5-0.5-0.5H14.06c-0.28,0-0.5,0.22-0.5,0.5V63.5H7.19V21.16h25.29   V28.66z M4.84,20.16v-5.13h29.99v5.13H4.84z M59.44,63.5H33.48V29.16h25.95V63.5z M33.5,28.16v-4.13h27.66v4.13H33.5z"/><path d="M11.57,29.27h1.88c0.78,0,1.42-0.63,1.42-1.42v-1.92c0-0.78-0.63-1.42-1.42-1.42h-1.88c-0.78,0-1.42,0.63-1.42,1.42v1.92   C10.15,28.64,10.79,29.27,11.57,29.27z M11.15,25.94c0-0.23,0.19-0.42,0.42-0.42h1.88c0.23,0,0.42,0.19,0.42,0.42v1.92   c0,0.23-0.19,0.42-0.42,0.42h-1.88c-0.23,0-0.42-0.19-0.42-0.42V25.94z"/><path d="M18.9,29.27h1.88c0.78,0,1.42-0.63,1.42-1.42v-1.92c0-0.78-0.63-1.42-1.42-1.42H18.9c-0.78,0-1.42,0.63-1.42,1.42v1.92   C17.49,28.64,18.12,29.27,18.9,29.27z M18.49,25.94c0-0.23,0.19-0.42,0.42-0.42h1.88c0.23,0,0.42,0.19,0.42,0.42v1.92   c0,0.23-0.19,0.42-0.42,0.42H18.9c-0.23,0-0.42-0.19-0.42-0.42V25.94z"/><path d="M26.23,29.27h1.88c0.78,0,1.42-0.63,1.42-1.42v-1.92c0-0.78-0.63-1.42-1.42-1.42h-1.88c-0.78,0-1.42,0.63-1.42,1.42v1.92   C24.82,28.64,25.45,29.27,26.23,29.27z M25.82,25.94c0-0.23,0.19-0.42,0.42-0.42h1.88c0.23,0,0.42,0.19,0.42,0.42v1.92   c0,0.23-0.19,0.42-0.42,0.42h-1.88c-0.23,0-0.42-0.19-0.42-0.42V25.94z"/><path d="M37.53,36.99h2.54c0.78,0,1.42-0.63,1.42-1.42v-2.59c0-0.78-0.63-1.42-1.42-1.42h-2.54c-0.78,0-1.42,0.63-1.42,1.42v2.59   C36.11,36.35,36.75,36.99,37.53,36.99z M37.11,32.98c0-0.23,0.19-0.42,0.42-0.42h2.54c0.23,0,0.42,0.19,0.42,0.42v2.59   c0,0.23-0.19,0.42-0.42,0.42h-2.54c-0.23,0-0.42-0.19-0.42-0.42V32.98z"/><path d="M45.19,36.99h2.54c0.78,0,1.42-0.63,1.42-1.42v-2.59c0-0.78-0.63-1.42-1.42-1.42h-2.54c-0.78,0-1.42,0.63-1.42,1.42v2.59   C43.78,36.35,44.41,36.99,45.19,36.99z M44.78,32.98c0-0.23,0.19-0.42,0.42-0.42h2.54c0.23,0,0.42,0.19,0.42,0.42v2.59   c0,0.23-0.19,0.42-0.42,0.42h-2.54c-0.23,0-0.42-0.19-0.42-0.42V32.98z"/><path d="M52.85,36.99h2.54c0.78,0,1.42-0.63,1.42-1.42v-2.59c0-0.78-0.63-1.42-1.42-1.42h-2.54c-0.78,0-1.42,0.63-1.42,1.42v2.59   C51.44,36.35,52.07,36.99,52.85,36.99z M52.44,32.98c0-0.23,0.19-0.42,0.42-0.42h2.54c0.23,0,0.42,0.19,0.42,0.42v2.59   c0,0.23-0.19,0.42-0.42,0.42h-2.54c-0.23,0-0.42-0.19-0.42-0.42V32.98z"/><path d="M37.53,45.17h2.54c0.78,0,1.42-0.63,1.42-1.42v-2.59c0-0.78-0.63-1.41-1.42-1.41h-2.54c-0.78,0-1.42,0.63-1.42,1.41v2.59   C36.11,44.54,36.75,45.17,37.53,45.17z M37.11,41.16c0-0.23,0.19-0.41,0.42-0.41h2.54c0.23,0,0.42,0.19,0.42,0.41v2.59   c0,0.23-0.19,0.42-0.42,0.42h-2.54c-0.23,0-0.42-0.19-0.42-0.42V41.16z"/><path d="M45.19,45.17h2.54c0.78,0,1.42-0.63,1.42-1.42v-2.59c0-0.78-0.63-1.41-1.42-1.41h-2.54c-0.78,0-1.42,0.63-1.42,1.41v2.59   C43.78,44.54,44.41,45.17,45.19,45.17z M44.78,41.16c0-0.23,0.19-0.41,0.42-0.41h2.54c0.23,0,0.42,0.19,0.42,0.41v2.59   c0,0.23-0.19,0.42-0.42,0.42h-2.54c-0.23,0-0.42-0.19-0.42-0.42V41.16z"/><path d="M52.85,45.17h2.54c0.78,0,1.42-0.63,1.42-1.42v-2.59c0-0.78-0.63-1.41-1.42-1.41h-2.54c-0.78,0-1.42,0.63-1.42,1.41v2.59   C51.44,44.54,52.07,45.17,52.85,45.17z M52.44,41.16c0-0.23,0.19-0.41,0.42-0.41h2.54c0.23,0,0.42,0.19,0.42,0.41v2.59   c0,0.23-0.19,0.42-0.42,0.42h-2.54c-0.23,0-0.42-0.19-0.42-0.42V41.16z"/><path d="M37.53,53.35h2.54c0.78,0,1.42-0.63,1.42-1.42v-2.59c0-0.78-0.63-1.42-1.42-1.42h-2.54c-0.78,0-1.42,0.63-1.42,1.42v2.59   C36.11,52.72,36.75,53.35,37.53,53.35z M37.11,49.35c0-0.23,0.19-0.42,0.42-0.42h2.54c0.23,0,0.42,0.19,0.42,0.42v2.59   c0,0.23-0.19,0.42-0.42,0.42h-2.54c-0.23,0-0.42-0.19-0.42-0.42V49.35z"/><path d="M45.19,53.35h2.54c0.78,0,1.42-0.63,1.42-1.42v-2.59c0-0.78-0.63-1.42-1.42-1.42h-2.54c-0.78,0-1.42,0.63-1.42,1.42v2.59   C43.78,52.72,44.41,53.35,45.19,53.35z M44.78,49.35c0-0.23,0.19-0.42,0.42-0.42h2.54c0.23,0,0.42,0.19,0.42,0.42v2.59   c0,0.23-0.19,0.42-0.42,0.42h-2.54c-0.23,0-0.42-0.19-0.42-0.42V49.35z"/><path d="M52.85,53.35h2.54c0.78,0,1.42-0.63,1.42-1.42v-2.59c0-0.78-0.63-1.42-1.42-1.42h-2.54c-0.78,0-1.42,0.63-1.42,1.42v2.59   C51.44,52.72,52.07,53.35,52.85,53.35z M52.44,49.35c0-0.23,0.19-0.42,0.42-0.42h2.54c0.23,0,0.42,0.19,0.42,0.42v2.59   c0,0.23-0.19,0.42-0.42,0.42h-2.54c-0.23,0-0.42-0.19-0.42-0.42V49.35z"/><path d="M52.85,61.54h2.54c0.78,0,1.42-0.63,1.42-1.42v-2.59c0-0.78-0.63-1.41-1.42-1.41h-2.54c-0.78,0-1.42,0.63-1.42,1.41v2.59   C51.44,60.9,52.07,61.54,52.85,61.54z M52.44,57.53c0-0.23,0.19-0.41,0.42-0.41h2.54c0.23,0,0.42,0.19,0.42,0.41v2.59   c0,0.23-0.19,0.42-0.42,0.42h-2.54c-0.23,0-0.42-0.19-0.42-0.42V57.53z"/><path d="M37.53,61.54h2.54c0.78,0,1.42-0.63,1.42-1.42v-2.59c0-0.78-0.63-1.41-1.42-1.41h-2.54c-0.78,0-1.42,0.63-1.42,1.41v2.59   C36.11,60.9,36.75,61.54,37.53,61.54z M37.11,57.53c0-0.23,0.19-0.41,0.42-0.41h2.54c0.23,0,0.42,0.19,0.42,0.41v2.59   c0,0.23-0.19,0.42-0.42,0.42h-2.54c-0.23,0-0.42-0.19-0.42-0.42V57.53z"/><path d="M45.19,61.54h2.54c0.78,0,1.42-0.63,1.42-1.42v-2.59c0-0.78-0.63-1.41-1.42-1.41h-2.54c-0.78,0-1.42,0.63-1.42,1.41v2.59   C43.78,60.9,44.41,61.54,45.19,61.54z M44.78,57.53c0-0.23,0.19-0.41,0.42-0.41h2.54c0.23,0,0.42,0.19,0.42,0.41v2.59   c0,0.23-0.19,0.42-0.42,0.42h-2.54c-0.23,0-0.42-0.19-0.42-0.42V57.53z"/><path d="M11.57,36.65h1.88c0.78,0,1.42-0.63,1.42-1.42v-1.92c0-0.78-0.63-1.42-1.42-1.42h-1.88c-0.78,0-1.42,0.63-1.42,1.42v1.92   C10.15,36.02,10.79,36.65,11.57,36.65z M11.15,33.32c0-0.23,0.19-0.42,0.42-0.42h1.88c0.23,0,0.42,0.19,0.42,0.42v1.92   c0,0.23-0.19,0.42-0.42,0.42h-1.88c-0.23,0-0.42-0.19-0.42-0.42V33.32z"/><path d="M18.9,36.65h1.88c0.78,0,1.42-0.63,1.42-1.42v-1.92c0-0.78-0.63-1.42-1.42-1.42H18.9c-0.78,0-1.42,0.63-1.42,1.42v1.92   C17.49,36.02,18.12,36.65,18.9,36.65z M18.49,33.32c0-0.23,0.19-0.42,0.42-0.42h1.88c0.23,0,0.42,0.19,0.42,0.42v1.92   c0,0.23-0.19,0.42-0.42,0.42H18.9c-0.23,0-0.42-0.19-0.42-0.42V33.32z"/><path d="M26.23,36.65h1.88c0.78,0,1.42-0.63,1.42-1.42v-1.92c0-0.78-0.63-1.42-1.42-1.42h-1.88c-0.78,0-1.42,0.63-1.42,1.42v1.92   C24.82,36.02,25.45,36.65,26.23,36.65z M25.82,33.32c0-0.23,0.19-0.42,0.42-0.42h1.88c0.23,0,0.42,0.19,0.42,0.42v1.92   c0,0.23-0.19,0.42-0.42,0.42h-1.88c-0.23,0-0.42-0.19-0.42-0.42V33.32z"/><path d="M11.57,44.03h1.88c0.78,0,1.42-0.63,1.42-1.42v-1.92c0-0.78-0.63-1.42-1.42-1.42h-1.88c-0.78,0-1.42,0.63-1.42,1.42v1.92   C10.15,43.39,10.79,44.03,11.57,44.03z M11.15,40.69c0-0.23,0.19-0.42,0.42-0.42h1.88c0.23,0,0.42,0.19,0.42,0.42v1.92   c0,0.23-0.19,0.42-0.42,0.42h-1.88c-0.23,0-0.42-0.19-0.42-0.42V40.69z"/><path d="M18.9,44.03h1.88c0.78,0,1.42-0.63,1.42-1.42v-1.92c0-0.78-0.63-1.42-1.42-1.42H18.9c-0.78,0-1.42,0.63-1.42,1.42v1.92   C17.49,43.39,18.12,44.03,18.9,44.03z M18.49,40.69c0-0.23,0.19-0.42,0.42-0.42h1.88c0.23,0,0.42,0.19,0.42,0.42v1.92   c0,0.23-0.19,0.42-0.42,0.42H18.9c-0.23,0-0.42-0.19-0.42-0.42V40.69z"/><path d="M26.23,44.03h1.88c0.78,0,1.42-0.63,1.42-1.42v-1.92c0-0.78-0.63-1.42-1.42-1.42h-1.88c-0.78,0-1.42,0.63-1.42,1.42v1.92   C24.82,43.39,25.45,44.03,26.23,44.03z M25.82,40.69c0-0.23,0.19-0.42,0.42-0.42h1.88c0.23,0,0.42,0.19,0.42,0.42v1.92   c0,0.23-0.19,0.42-0.42,0.42h-1.88c-0.23,0-0.42-0.19-0.42-0.42V40.69z"/><path d="M22.73,57.54c0.28,0,0.5-0.22,0.5-0.5v-1.84c0-0.28-0.22-0.5-0.5-0.5s-0.5,0.22-0.5,0.5v1.84   C22.23,57.31,22.45,57.54,22.73,57.54z"/><path d="M50.6,20.05c0.45,0.09,0.91,0.13,1.35,0.13c1.83,0,3.55-0.71,4.86-2.03c1.64-1.64,2.33-3.91,1.88-6.22   c-0.52-2.73-2.7-4.9-5.43-5.41c-2.31-0.43-4.57,0.26-6.21,1.9c-1.64,1.64-2.33,3.91-1.88,6.23C45.7,17.36,47.88,19.54,50.6,20.05z    M47.77,9.12c1.12-1.13,2.59-1.73,4.16-1.73c0.38,0,0.77,0.04,1.16,0.11c2.33,0.44,4.19,2.29,4.63,4.62c0,0,0,0,0,0   c0.38,1.98-0.21,3.92-1.61,5.33c-1.4,1.41-3.34,2-5.32,1.62c-2.32-0.44-4.18-2.29-4.62-4.62C45.78,12.47,46.37,10.52,47.77,9.12z"/><path d="M51.94,4.29c0.28,0,0.5-0.22,0.5-0.5V2.25c0-0.28-0.22-0.5-0.5-0.5s-0.5,0.22-0.5,0.5v1.54   C51.44,4.07,51.66,4.29,51.94,4.29z"/><path d="M46.76,5.31c0.09,0.16,0.26,0.25,0.43,0.25c0.08,0,0.17-0.02,0.25-0.07c0.24-0.14,0.32-0.44,0.18-0.68l-0.77-1.33   c-0.14-0.24-0.44-0.32-0.68-0.18c-0.24,0.14-0.32,0.44-0.18,0.68L46.76,5.31z"/><path d="M42.14,8.2l1.33,0.77c0.08,0.05,0.17,0.07,0.25,0.07c0.17,0,0.34-0.09,0.43-0.25c0.14-0.24,0.06-0.54-0.18-0.68l-1.33-0.77   c-0.24-0.14-0.55-0.06-0.68,0.18C41.82,7.76,41.9,8.06,42.14,8.2z"/><path d="M40.91,13.78h1.54c0.28,0,0.5-0.22,0.5-0.5s-0.22-0.5-0.5-0.5h-1.54c-0.28,0-0.5,0.22-0.5,0.5S40.63,13.78,40.91,13.78z"/><path d="M43.47,17.6l-1.33,0.77c-0.24,0.14-0.32,0.44-0.18,0.68c0.09,0.16,0.26,0.25,0.43,0.25c0.08,0,0.17-0.02,0.25-0.07   l1.33-0.77c0.24-0.14,0.32-0.44,0.18-0.68C44.01,17.54,43.71,17.46,43.47,17.6z"/><path d="M59.91,18.46l1.33,0.77c0.08,0.05,0.17,0.07,0.25,0.07c0.17,0,0.34-0.09,0.43-0.25c0.14-0.24,0.06-0.54-0.18-0.68   l-1.33-0.77c-0.24-0.14-0.54-0.06-0.68,0.18C59.59,18.02,59.67,18.32,59.91,18.46z"/><path d="M60.93,13.28c0,0.28,0.22,0.5,0.5,0.5h1.54c0.28,0,0.5-0.22,0.5-0.5s-0.22-0.5-0.5-0.5h-1.54   C61.16,12.78,60.93,13.01,60.93,13.28z"/><path d="M60.16,9.04c0.08,0,0.17-0.02,0.25-0.07l1.33-0.77c0.24-0.14,0.32-0.44,0.18-0.68c-0.14-0.24-0.44-0.32-0.68-0.18   L59.91,8.1c-0.24,0.14-0.32,0.44-0.18,0.68C59.82,8.95,59.99,9.04,60.16,9.04z"/><path d="M56.44,5.49c0.08,0.05,0.17,0.07,0.25,0.07c0.17,0,0.34-0.09,0.43-0.25l0.77-1.33c0.14-0.24,0.06-0.54-0.18-0.68   c-0.24-0.14-0.55-0.06-0.68,0.18l-0.77,1.33C56.12,5.05,56.2,5.36,56.44,5.49z"/><path d="M1.85,8.95c0.01,0.27,0.23,0.47,0.5,0.47h18.7c0.14,0,0.28-0.06,0.37-0.16c0.09-0.1,0.14-0.24,0.13-0.38   c-0.29-3.01-2.78-5.28-5.79-5.28c-0.54,0-1.08,0.07-1.59,0.22C12.81,2.34,10.92,1.5,8.92,1.5c-3.91,0-7.1,3.18-7.1,7.1   c0,0.08,0.01,0.17,0.02,0.25L1.85,8.95z M8.92,2.5c1.82,0,3.53,0.81,4.7,2.21c0.13,0.16,0.35,0.22,0.55,0.15   c0.51-0.18,1.05-0.27,1.59-0.27c2.31,0,4.25,1.61,4.71,3.83H2.82C2.91,5.14,5.61,2.5,8.92,2.5z"/></g></svg>