<?xml version="1.0" ?><svg id="Layer_1" style="enable-background:new 0 0 66 66;" version="1.1" viewBox="0 0 66 66" xml:space="preserve" xmlns="http://www.w3.org/2000/svg" xmlns:xlink="http://www.w3.org/1999/xlink"><g><path d="M62.69,39.29c0.36-0.77,0.4-1.64,0.11-2.45L56.81,20.4c0.87-1.25,1.39-2.76,1.39-4.39c0-2.95-1.67-5.51-4.11-6.79V5.08   c0-1.97-1.6-3.58-3.58-3.58c-1.97,0-3.58,1.6-3.58,3.58v4.14c-2.44,1.29-4.11,3.85-4.11,6.79c0,1.63,0.52,3.14,1.39,4.39   l-2.27,6.25H12.81v-1.72c0-2.7-2.2-4.9-4.9-4.9c-2.7,0-4.9,2.2-4.9,4.9v34.66c0,0,0,0,0,0.01s0,0,0,0.01c0,2.7,2.2,4.9,4.9,4.9   h49.66c0.28,0,0.5-0.22,0.5-0.5V40.64c0.51,0.32,1.1,0.51,1.72,0.51c0.2,0,0.41-0.02,0.61-0.06l1.04,2.82   c0.07,0.2,0.27,0.33,0.47,0.33c0.06,0,0.12-0.01,0.17-0.03c0.26-0.1,0.39-0.38,0.3-0.64l-1.04-2.82   C61.92,40.41,62.4,39.92,62.69,39.29z M47.94,8.78v-3.7c0-1.42,1.16-2.58,2.58-2.58s2.58,1.16,2.58,2.58v3.7   c-0.01,0-0.03-0.01-0.04-0.01c-0.38-0.13-0.77-0.24-1.17-0.31c-0.06-0.01-0.11-0.02-0.17-0.03c-0.39-0.06-0.78-0.1-1.19-0.1   c0,0-0.01,0-0.01,0c0,0-0.01,0-0.01,0c-0.4,0-0.79,0.04-1.18,0.1c-0.06,0.01-0.12,0.02-0.18,0.03c-0.4,0.07-0.78,0.18-1.15,0.31   C47.97,8.77,47.95,8.77,47.94,8.78z M47.69,9.96c0.2-0.1,0.41-0.18,0.62-0.25c0.02-0.01,0.03-0.01,0.05-0.02   c0.23-0.08,0.46-0.14,0.69-0.2c0,0,0.01,0,0.01,0c1.2-0.27,2.44-0.2,3.62,0.2c0.01,0,0.01,0,0.02,0.01   c0.22,0.08,0.44,0.17,0.66,0.27c2.27,1.07,3.84,3.37,3.84,6.04c0,3.69-3,6.68-6.68,6.68s-6.68-3-6.68-6.68   C43.83,13.34,45.42,11.03,47.69,9.96z M50.51,23.7c0.23,0,0.45-0.01,0.67-0.03l1.09,2.99h-3.51l1.09-2.99   C50.07,23.68,50.29,23.7,50.51,23.7z M48.84,23.51l-5.53,15.19c-0.2,0.55-0.61,0.99-1.14,1.24c-0.53,0.25-1.13,0.27-1.68,0.07   c-0.55-0.2-0.99-0.61-1.24-1.14s-0.27-1.13-0.07-1.68l5.78-15.89C45.99,22.39,47.33,23.17,48.84,23.51z M4.01,24.93   c0-2.15,1.75-3.9,3.9-3.9c2.15,0,3.9,1.75,3.9,3.9v31.7c-0.9-1.18-2.31-1.94-3.9-1.94s-3,0.76-3.9,1.94V24.93z M7.91,63.5   c-2.15,0-3.9-1.75-3.9-3.9v-0.01c0-2.15,1.75-3.9,3.9-3.9c2.15,0,3.9,1.75,3.9,3.9c0,0.28,0.22,0.5,0.5,0.5s0.5-0.22,0.5-0.5V27.65   h28.77l-3.35,9.2c-0.52,1.42,0.04,2.96,1.25,3.76l-1.09,2.95c-0.1,0.26,0.04,0.55,0.3,0.64c0.06,0.02,0.12,0.03,0.17,0.03   c0.2,0,0.39-0.13,0.47-0.33l1.06-2.89c0.28,0.08,0.56,0.13,0.84,0.13c1.31,0,2.54-0.81,3.01-2.11l4.14-11.39h4.24l4.14,11.39   c0.08,0.21,0.18,0.4,0.29,0.58V63.5H7.91z M60.54,40.01C60.54,40.01,60.54,40.01,60.54,40.01C60.54,40.01,60.54,40.01,60.54,40.01   L60.54,40.01c-0.55,0.2-1.15,0.17-1.68-0.07c-0.53-0.25-0.94-0.69-1.14-1.24l-5.53-15.19c1.51-0.34,2.85-1.12,3.88-2.2l5.78,15.89   c0.2,0.55,0.18,1.15-0.07,1.68S61.09,39.81,60.54,40.01z"/><path d="M50.51,18.8c1.54,0,2.79-1.25,2.79-2.79c0-1.54-1.25-2.79-2.79-2.79c-1.54,0-2.79,1.25-2.79,2.79   C47.73,17.55,48.97,18.8,50.51,18.8z"/><path d="M36.18,47.22C36.18,47.22,36.18,47.22,36.18,47.22l-1.36-0.21c-0.2-0.7-0.49-1.37-0.85-2.03l0.83-1.1   c0.31-0.4,0.27-0.98-0.09-1.34l-1.57-1.57c-0.36-0.36-0.94-0.4-1.34-0.09l-1.15,0.85c-0.63-0.36-1.3-0.63-2.01-0.82l-0.19-1.4   c-0.07-0.51-0.51-0.89-1.02-0.89h-2.22c-0.51,0-0.95,0.38-1.02,0.89l-0.22,1.41c-0.7,0.2-1.37,0.47-1.99,0.82l-1.12-0.85   c-0.4-0.31-0.98-0.27-1.34,0.09l-1.58,1.58c-0.36,0.36-0.4,0.94-0.09,1.33l0.82,1.13c-0.36,0.63-0.64,1.3-0.86,2.03l-1.34,0.19   c-0.5,0.07-0.89,0.51-0.89,1.02v2.22c0,0.51,0.38,0.95,0.89,1.02l1.32,0.2c0.18,0.72,0.47,1.42,0.85,2.12l-0.79,1.03   c-0.31,0.42-0.27,0.98,0.1,1.34l1.57,1.56c0.36,0.36,0.94,0.4,1.34,0.09l1.03-0.76c0.66,0.39,1.37,0.69,2.15,0.9l0.17,1.24   c0.07,0.51,0.51,0.89,1.02,0.89h2.22c0.51,0,0.95-0.38,1.02-0.89l0.19-1.25c0.73-0.19,1.45-0.49,2.15-0.9l1,0.76   c0.4,0.31,0.98,0.27,1.34-0.09l1.58-1.57c0.36-0.36,0.4-0.93,0.09-1.35l-0.77-1.05c0.37-0.67,0.66-1.37,0.85-2.11l1.31-0.18   c0.51-0.07,0.89-0.51,0.89-1.02v-2.22C37.07,47.73,36.68,47.29,36.18,47.22z M36.04,50.48l-1.3,0.18c-0.4,0.05-0.73,0.35-0.85,0.76   c-0.16,0.63-0.41,1.26-0.75,1.85c-0.2,0.35-0.17,0.79,0.07,1.12l0.78,1.06l-1.6,1.57l-1.02-0.78c-0.33-0.23-0.76-0.25-1.12-0.05   c-0.6,0.35-1.22,0.62-1.87,0.79c-0.4,0.11-0.7,0.44-0.76,0.84l-0.19,1.26l-2.24-0.02l-0.17-1.24c-0.05-0.41-0.35-0.74-0.76-0.86   c-0.66-0.17-1.29-0.44-1.88-0.78c-0.17-0.09-0.35-0.14-0.52-0.14c-0.22,0-0.43,0.07-0.6,0.21l-1.03,0.76l-1.58-1.6l0.79-1.04   c0.23-0.32,0.26-0.76,0.06-1.12c-0.33-0.59-0.58-1.21-0.75-1.85c-0.11-0.4-0.44-0.7-0.84-0.75l-1.33-0.2l0.03-2.25l1.34-0.19   c0.41-0.05,0.73-0.34,0.84-0.74c0.18-0.63,0.44-1.23,0.75-1.77c0.22-0.37,0.19-0.81-0.06-1.14l-0.83-1.13l1.6-1.58l1.14,0.86   c0.33,0.24,0.76,0.26,1.1,0.06c0.54-0.3,1.13-0.54,1.75-0.72c0.39-0.11,0.68-0.42,0.75-0.85l0.21-1.42l2.24,0.02l0.19,1.42   c0.07,0.4,0.36,0.71,0.75,0.82c0.6,0.16,1.19,0.4,1.74,0.71c0.35,0.2,0.78,0.18,1.12-0.06l1.15-0.86l1.58,1.6l-0.82,1.09   c-0.26,0.33-0.28,0.78-0.07,1.13c0.32,0.56,0.57,1.16,0.75,1.78c0.11,0.41,0.44,0.69,0.84,0.75l1.34,0.19l0.07-0.5L36.04,50.48z"/><path d="M26.32,44.54c-2.65,0-4.8,2.16-4.8,4.81c0,2.65,2.15,4.8,4.8,4.8s4.8-2.15,4.8-4.8C31.13,46.7,28.97,44.54,26.32,44.54z    M26.32,53.16c-2.1,0-3.8-1.71-3.8-3.8c0-2.1,1.71-3.81,3.8-3.81c2.1,0,3.8,1.71,3.8,3.81C30.13,51.45,28.42,53.16,26.32,53.16z"/><path d="M52.01,58.06H41.25c-0.28,0-0.5,0.22-0.5,0.5s0.22,0.5,0.5,0.5h10.76c0.28,0,0.5-0.22,0.5-0.5S52.29,58.06,52.01,58.06z"/><path d="M52.01,54.13H41.25c-0.28,0-0.5,0.22-0.5,0.5s0.22,0.5,0.5,0.5h10.76c0.28,0,0.5-0.22,0.5-0.5S52.29,54.13,52.01,54.13z"/><path d="M52.01,50.19h-5.6c-0.28,0-0.5,0.22-0.5,0.5s0.22,0.5,0.5,0.5h5.6c0.28,0,0.5-0.22,0.5-0.5S52.29,50.19,52.01,50.19z"/><path d="M17.28,36.09h9.94c0.28,0,0.5-0.22,0.5-0.5s-0.22-0.5-0.5-0.5h-9.94c-0.28,0-0.5,0.22-0.5,0.5S17,36.09,17.28,36.09z"/><path d="M17.28,32.15h9.94c0.28,0,0.5-0.22,0.5-0.5s-0.22-0.5-0.5-0.5h-9.94c-0.28,0-0.5,0.22-0.5,0.5S17,32.15,17.28,32.15z"/><path d="M3.51,15.97h37.26c0.28,0,0.5-0.22,0.5-0.5V4.58c0-0.28-0.22-0.5-0.5-0.5H3.51c-0.28,0-0.5,0.22-0.5,0.5v10.89   C3.01,15.74,3.23,15.97,3.51,15.97z M4.01,5.08h3.16v2.14c0,0.28,0.22,0.5,0.5,0.5s0.5-0.22,0.5-0.5V5.08h3.14v4.7   c0,0.28,0.22,0.5,0.5,0.5s0.5-0.22,0.5-0.5v-4.7h3.14v2.14c0,0.28,0.22,0.5,0.5,0.5c0.28,0,0.5-0.22,0.5-0.5V5.08h3.14v4.7   c0,0.28,0.22,0.5,0.5,0.5s0.5-0.22,0.5-0.5v-4.7h3.14v2.14c0,0.28,0.22,0.5,0.5,0.5s0.5-0.22,0.5-0.5V5.08h3.14v4.7   c0,0.28,0.22,0.5,0.5,0.5s0.5-0.22,0.5-0.5v-4.7h3.14v2.14c0,0.28,0.22,0.5,0.5,0.5s0.5-0.22,0.5-0.5V5.08h3.14v4.7   c0,0.28,0.22,0.5,0.5,0.5s0.5-0.22,0.5-0.5v-4.7h3.16v9.89H4.01V5.08z"/></g></svg>