<?xml version="1.0" ?><svg id="Layer_1" style="enable-background:new 0 0 66 66;" version="1.1" viewBox="0 0 66 66" xml:space="preserve" xmlns="http://www.w3.org/2000/svg" xmlns:xlink="http://www.w3.org/1999/xlink"><g><path d="M22.76,24.09c-0.83,0-1.51,0.68-1.51,1.51c0,0.84,0.68,1.51,1.51,1.51c0.84,0,1.51-0.67,1.51-1.51   C24.27,24.77,23.61,24.09,22.76,24.09z"/><path d="M35.14,27.11c0.84,0,1.51-0.67,1.51-1.51c0-0.83-0.67-1.51-1.51-1.51c-0.83,0-1.51,0.68-1.51,1.51   C33.63,26.44,34.31,27.11,35.14,27.11z"/><path d="M31.83,33.93c0.2-0.19,0.2-0.51,0-0.71c-0.19-0.2-0.51-0.2-0.71,0c-1.2,1.19-3.16,1.19-4.36,0c-0.2-0.19-0.51-0.19-0.71,0   c-0.19,0.2-0.19,0.51,0,0.71c0.8,0.79,1.84,1.18,2.88,1.18S31.04,34.72,31.83,33.93z"/><path d="M28.95,30.23c0.95,0,1.73-0.78,1.73-1.73c0-0.28-0.22-0.5-0.5-0.5s-0.5,0.22-0.5,0.5c0,0.4-0.33,0.73-0.73,0.73   s-0.73-0.33-0.73-0.73c0-0.28-0.22-0.5-0.5-0.5s-0.5,0.22-0.5,0.5C27.22,29.46,28,30.23,28.95,30.23z"/><path d="M28.73,7c-2.85,0-5.17,2.31-5.17,5.16c0,2.85,2.32,5.17,5.17,5.17c2.85,0,5.16-2.32,5.16-5.17C33.9,9.31,31.58,7,28.73,7z    M28.73,16.33c-2.3,0-4.17-1.87-4.17-4.17c0-2.29,1.87-4.16,4.17-4.16c2.29,0,4.16,1.87,4.16,4.16   C32.9,14.46,31.03,16.33,28.73,16.33z"/><path d="M63.37,63.41H52.03l0.95-0.83c6.21-5.56,9.6-13.04,9.53-21.05v-2.2c0-0.27-0.22-0.5-0.49-0.5   c-8.62-0.13-10.84-4.35-10.87-4.39c-0.08-0.17-0.26-0.28-0.45-0.28s-0.37,0.11-0.45,0.28c-0.02,0.04-2.18,4.26-10.86,4.39   c-0.27,0-0.49,0.23-0.49,0.5v2.2c0,0.87,0.05,1.73,0.13,2.58l-2.99-0.97v-4.68c3.53-2.22,5.95-6.03,6.24-10.42   c1.93-0.32,3.39-1.97,3.39-3.95c0-1.44-0.78-2.71-1.94-3.42h2c0.28,0,0.5-0.22,0.5-0.5s-0.22-0.5-0.5-0.5h-2.16v-3.23   c0-8.19-6.66-14.85-14.85-14.85c-8.19,0-14.85,6.66-14.85,14.85v3.23h-2.16c-0.28,0-0.5,0.22-0.5,0.5s0.22,0.5,0.5,0.5h2.45   c-1.16,0.71-1.94,1.97-1.94,3.42c0,1.99,1.46,3.64,3.39,3.95c0.28,4.21,2.51,7.89,5.8,10.14v4.96l-2.67,0.86   c-0.01,0-0.02,0.01-0.03,0.01l-6.17,2c-0.01,0-0.01,0-0.02,0.01l-0.15,0.05c-3.67,1.18-6.13,4.56-6.13,8.42v8.92H2.63   c-0.28,0-0.5,0.22-0.5,0.5s0.22,0.5,0.5,0.5h60.75c0.28,0,0.5-0.22,0.5-0.5S63.65,63.41,63.37,63.41z M13.24,46.85l5.19-1.68v18.24   h-5.19V46.85z M39.9,39.82c6.87-0.22,9.79-2.95,10.8-4.25c1.01,1.31,3.93,4.03,10.81,4.25v1.71c0.07,7.72-3.2,14.93-9.19,20.3   l-1.62,1.42l-1.61-1.42c-5.84-5.12-9.19-12.52-9.19-20.3V39.82z M48.43,62.58l0.94,0.83H19.43V44.84l2.64-0.86l6.33,5.71   c0.19,0.17,0.48,0.17,0.67,0l6.33-5.71l3.75,1.22C40.03,51.89,43.3,58.08,48.43,62.58z M44.67,24.09c0,1.42-1,2.62-2.35,2.94v-5.88   C43.67,21.46,44.67,22.67,44.67,24.09z M14.88,16.44c0-7.64,6.21-13.85,13.85-13.85c7.63,0,13.85,6.21,13.85,13.85v3.23H14.88   V16.44z M13.23,24.09c0-1.43,1-2.63,2.35-2.95v5.89C14.23,26.72,13.23,25.51,13.23,24.09z M16.58,27.14v-6.47h24.75v6.47   c0,6.82-5.55,12.37-12.37,12.37C22.13,39.51,16.58,33.96,16.58,27.14z M28.95,40.51c2.19,0,4.26-0.54,6.08-1.48V43   c-0.03,0.02-0.07,0.02-0.09,0.05l-6.21,5.6l-6.21-5.6c-0.03-0.03-0.07-0.03-0.1-0.05v-4.2C24.36,39.88,26.58,40.51,28.95,40.51z    M7.25,54.49c0-3.25,1.99-6.1,4.99-7.28v16.19H7.25V54.49z"/><path d="M54.85,47.75c0-2.29-1.86-4.15-4.15-4.15s-4.15,1.86-4.15,4.15c0,2.29,1.86,4.15,4.15,4.15S54.85,50.04,54.85,47.75z    M47.56,47.75c0-1.73,1.41-3.15,3.15-3.15s3.15,1.41,3.15,3.15s-1.41,3.15-3.15,3.15S47.56,49.49,47.56,47.75z"/></g></svg>