<?xml version="1.0" encoding="UTF-8" standalone="no"?>
<svg
   xmlns:dc="http://purl.org/dc/elements/1.1/"
   xmlns:cc="http://creativecommons.org/ns#"
   xmlns:rdf="http://www.w3.org/1999/02/22-rdf-syntax-ns#"
   xmlns:svg="http://www.w3.org/2000/svg"
   xmlns="http://www.w3.org/2000/svg"
   viewBox="0 0 853.33331 853.33331"
   height="853.33331"
   width="853.33331"
   xml:space="preserve"
   id="svg2"
   version="1.1"><metadata
     id="metadata8"><rdf:RDF><cc:Work
         rdf:about=""><dc:format>image/svg+xml</dc:format><dc:type
           rdf:resource="http://purl.org/dc/dcmitype/StillImage" /></cc:Work></rdf:RDF></metadata><defs
     id="defs6" /><g
     transform="matrix(1.3333333,0,0,-1.3333333,0,853.33333)"
     id="g10"><g
       transform="scale(0.1)"
       id="g12"><path
         id="path14"
         style="fill:#1b5065;fill-opacity:1;fill-rule:nonzero;stroke:none"
         d="m 835.383,4195.14 c -5.422,0 -10.91,1.09 -16.153,3.4 -20.312,8.93 -29.511,32.64 -20.57,52.92 10.82,24.54 22.004,48.87 33.508,72.97 9.562,20.02 33.523,28.46 53.523,18.92 20.024,-9.55 28.489,-33.53 18.926,-53.52 -11.187,-23.37 -22.012,-46.97 -32.461,-70.73 -6.648,-15.03 -21.328,-23.96 -36.773,-23.96 z m -78.07,-199.37 c -4.344,0 -8.739,0.7 -13.075,2.2 -20.957,7.22 -32.09,30.05 -24.875,51.01 11.758,34.16 24.407,68.5 37.524,102.06 8.101,20.63 31.336,30.84 52.019,22.74 20.645,-8.07 30.828,-31.36 22.735,-52.01 -12.696,-32.54 -24.961,-65.81 -36.36,-98.92 -5.718,-16.63 -21.297,-27.08 -37.968,-27.08 z m -85.211,-309.45 c -2.715,0 -5.481,0.25 -8.254,0.86 -21.7,4.52 -35.606,25.8 -31.055,47.52 14.797,70.64 32.734,141.54 53.32,210.73 6.328,21.22 28.7,33.37 49.95,27 21.25,-6.33 33.351,-28.7 26.996,-49.95 -19.961,-67.03 -37.344,-135.75 -51.692,-204.25 -3.957,-18.92 -20.652,-31.91 -39.265,-31.91 z m -54.778,-531.54 c -22.168,0 -40.144,17.98 -40.144,40.15 0,145.16 11.968,290.82 35.547,432.89 3.652,21.85 24.351,36.55 46.179,33.01 21.875,-3.63 36.668,-24.3 33.035,-46.18 -22.871,-137.74 -34.468,-278.95 -34.468,-419.72 0,-22.17 -17.981,-40.15 -40.149,-40.15" /><path
         id="path16"
         style="fill:#1b5065;fill-opacity:1;fill-rule:nonzero;stroke:none"
         d="M 3200,576.57 C 1753.78,576.57 577.18,1753.9 577.18,3203.9 h 80.293 c 0,-1420 1140.587,-2547.029 2542.527,-2547.029 699.25,0 1350.99,275.781 1835.19,780.599 l 57.94,-54.44 C 4593.66,862.281 3921.34,576.57 3200,576.57" /><path
         id="path18"
         style="fill:#1b5065;fill-opacity:1;fill-rule:nonzero;stroke:none"
         d="M 4872.6,1497.35 5251.67,1626 5173.6,1233.37 Z" /><path
         id="path20"
         style="fill:#1b5065;fill-opacity:1;fill-rule:nonzero;stroke:none"
         d="m 5747.71,2728.47 c -2.16,0 -4.38,0.19 -6.61,0.55 -21.87,3.64 -36.67,24.31 -33.03,46.19 22.87,137.73 34.47,278.95 34.47,419.72 0,22.16 17.99,40.15 40.15,40.15 22.16,0 40.13,-17.99 40.13,-40.15 0,-145.16 -11.96,-290.83 -35.54,-432.9 -3.26,-19.63 -20.28,-33.56 -39.57,-33.56 z m -72.29,-312.72 c -3.79,0 -7.63,0.53 -11.47,1.68 -21.24,6.32 -33.34,28.69 -27.01,49.94 19.97,67.04 37.36,135.75 51.7,204.26 4.53,21.69 25.88,35.72 47.52,31.05 21.69,-4.53 35.6,-25.81 31.05,-47.51 -14.79,-70.66 -32.72,-141.56 -53.32,-210.75 -5.2,-17.4 -21.17,-28.67 -38.47,-28.67 z m -69.73,-202.44 c -4.89,0 -9.82,0.88 -14.64,2.76 -20.65,8.11 -30.84,31.39 -22.74,52.05 12.71,32.4 24.96,65.7 36.39,98.88 7.24,21 30.06,32.1 51.01,24.89 20.97,-7.21 32.13,-30.05 24.92,-51.02 -11.79,-34.26 -24.45,-68.6 -37.56,-102.09 -6.22,-15.81 -21.35,-25.47 -37.38,-25.47 z m -68.94,-159.8 c -5.72,0 -11.55,1.23 -17.1,3.83 -20.05,9.45 -28.64,33.38 -19.18,53.43 9.35,19.86 18.5,39.86 27.39,60 8.93,20.28 32.62,29.44 52.92,20.58 20.28,-8.95 29.48,-32.65 20.55,-52.93 -9.15,-20.77 -18.59,-41.4 -28.23,-61.89 -6.85,-14.53 -21.3,-23.02 -36.35,-23.02" /><path
         id="path22"
         style="fill:#1b5065;fill-opacity:1;fill-rule:nonzero;stroke:none"
         d="m 5822.82,3203.9 h -80.28 c 0,1390 -1140.59,2538.03 -2542.54,2538.03 -698.36,0 -1349.51,-279.59 -1833.51,-783.29 l -57.92,54.51 c 499.31,519.58 1171.01,809.64 1891.43,809.64 1446.22,0 2622.82,-1178.89 2622.82,-2618.89" /><path
         id="path24"
         style="fill:#1b5065;fill-opacity:1;fill-rule:nonzero;stroke:none"
         d="m 1529.01,4894.09 -379.19,-128.27 78.47,392.54 z" /><path
         id="path26"
         style="fill:#1b5065;fill-opacity:1;fill-rule:nonzero;stroke:none"
         d="m 2047.4,2739.95 v -347.93 c 0,0 48.61,-178.12 175.73,-178.12 h 361.31 c 0,0 -507.04,4.16 -537.04,526.05" /><path
         id="path28"
         style="fill:#1b5065;fill-opacity:1;fill-rule:nonzero;stroke:none"
         d="m 2075.94,3873.9 h 240.87 c 0,0 -238.41,23.49 -227.49,-550.64 l -13.38,550.64" /><path
         id="path30"
         style="fill:#1b5065;fill-opacity:1;fill-rule:nonzero;stroke:none"
         d="m 3097.4,2739.95 v -347.93 c 0,0 42.39,-178.12 169.51,-178.12 h 361.31 c 0,0 -510.82,4.16 -530.82,526.05" /><path
         id="path32"
         style="fill:#1b5065;fill-opacity:1;fill-rule:nonzero;stroke:none"
         d="m 3097.4,3313.9 h 263.19 c 0,0 -263.19,11.58 -263.19,-562.55 v 562.55" /><path
         id="path34"
         style="fill:#1b5065;fill-opacity:1;fill-rule:nonzero;stroke:none"
         d="m 3307.4,4248.74 c 0,-49.89 -13.31,-84.84 -62.28,-84.84 H 2082.14 c -49.01,0 -114.74,34.95 -114.74,84.84 v 6.7 c 0,49.89 65.73,98.46 114.74,98.46 h 1162.98 c 48.97,0 62.28,-48.57 62.28,-98.46 v -6.7" /><path
         id="path36"
         style="fill:#1b5065;fill-opacity:1;fill-rule:nonzero;stroke:none"
         d="m 2085.71,4115.86 c 17.51,-14.27 52.95,-31.96 79.46,-31.96 h 1001.04 c 22.76,0 30.24,19.39 32.65,32.3 -7.69,-2.13 -18.33,-2.3 -32.65,-2.3 H 2165.17 c -17.93,0 -38.53,-0.26 -56.66,2.2 -8.17,1.08 -16.08,-0.86 -22.8,-0.24 z m 1080.5,-51.96 H 2165.17 c -42.3,0 -115.99,37.84 -115.99,63.13 0,7.11 2.45,16.57 25.24,16.57 9.67,0 22.66,2.8 37.69,0.76 17.3,-2.36 36.9,-0.46 53.06,-0.46 h 1001.04 c 20.12,0 30.34,-2.01 35.81,0.24 3.11,1.25 6.04,-0.61 9.59,-0.61 1.56,0 15.16,4.21 15.16,-13.3 0,-35.09 -18.95,-66.33 -60.56,-66.33" /><path
         id="path38"
         style="fill:#1b5065;fill-opacity:1;fill-rule:nonzero;stroke:none"
         d="M 3117.4,2103.9 H 2075.21 l -7.95,8.81 c -54.03,81.49 -105.32,176.09 -107.04,180.13 l -12.82,3.39 V 3885.7 l 12.66,4.79 c 28.5,71.46 41.34,79.72 43.76,82.44 l 5.66,3.34 5.26,2.17 c 37.4,20.81 33.9,82.4 33.86,82.97 l 0.58,132.49 h 28.22 v -134.59 c 30,-1.31 7.04,-84.01 -53.86,-123.68 -3.39,-6.51 3.86,-22.87 -26.14,-60.22 V 2307.13 c 30,-19.15 65.78,-93.23 106.71,-143.23 H 3117.4 v -60" /><path
         id="path40"
         style="fill:#1b5065;fill-opacity:1;fill-rule:nonzero;stroke:none"
         d="m 3307.4,3663.9 h -50 v 216.66 c 0,41.81 -3.1,48.92 -3.2,48.98 l 0.66,2.12 c -67.95,37.82 -57.93,130.64 -57.62,134.39 l 2.76,127.85 h 27.4 v -134.59 c 0,-2.81 -4.32,-58.21 31.14,-79.83 14.19,-5.46 48.86,-26.29 48.86,-98.92 V 3663.9" /><path
         id="path42"
         style="fill:#1b5065;fill-opacity:1;fill-rule:nonzero;stroke:none"
         d="m 4357.4,3552.89 c 0,-49.89 -19.52,-78.99 -68.5,-78.99 H 3125.91 c -49.01,0 -108.51,29.1 -108.51,78.99 v 6.69 c 0,49.89 59.5,104.32 108.51,104.32 H 4288.9 c 48.98,0 68.5,-54.43 68.5,-104.32 v -6.69" /><path
         id="path44"
         style="fill:#1b5065;fill-opacity:1;fill-rule:nonzero;stroke:none"
         d="m 3129.49,3417.94 c 17.51,-14.27 52.95,-34.04 79.46,-34.04 h 1001.04 c 22.76,0 30.24,24.37 32.65,37.3 -7.69,-2.13 -18.33,2.7 -32.65,2.7 H 3208.95 c -17.93,0 -38.53,-4.22 -56.66,-1.78 -8.17,1.09 -16.08,-4.81 -22.8,-4.18 z m 1080.5,-54.04 H 3208.95 c -42.29,0 -116,39.9 -116,65.2 0,7.12 2.45,17.61 25.24,17.61 9.67,0 22.67,1.23 37.7,-0.8 17.3,-2.36 36.9,-2.01 53.06,-2.01 h 1001.04 c 20.13,0 30.34,0.06 35.8,2.31 3.12,1.25 6.04,0.42 9.6,0.42 1.56,0 15.16,2.68 15.16,-14.84 0,-35.09 -18.96,-67.89 -60.56,-67.89" /><path
         id="path46"
         style="fill:#1b5065;fill-opacity:1;fill-rule:nonzero;stroke:none"
         d="M 4308.18,2103.9 H 3122.23 l -7.85,4.74 c -55.04,55.31 -108.98,123.79 -110.7,126.78 l -16.28,4.68 v 1070.71 l 16.39,6.36 c 29.52,49.42 43.54,55.14 46.84,57.58 l 9.78,3.6 c 30.94,11.52 18.86,36.59 18.36,41.48 l -11.37,3.17 v 70.9 h 50 v -69.4 c 30,-24.25 -1.71,-71.21 -52.41,-93.58 -3.32,-4.4 2.41,-14.3 -17.59,-34.89 V 2254.85 c 20,-16.49 59.5,-70.95 97.3,-90.95 h 1140.67 c 37.34,20 12.03,83.22 12.03,83.8 v 1055.75 c 0,18.71 5.22,22.68 1.7,23.51 l -5.92,1.21 c -56.64,21.07 -65.78,71.04 -65.78,96.33 v 69.4 h 69.91 l -0.24,-72.19 c -0.44,-4.39 -11.39,-29.69 17.73,-41.5 20.08,-4.63 42.6,-26.17 42.6,-76.76 v -1056.1 c 0,-3.46 8.77,-78.12 -51.48,-138.71 l 2.26,-4.74" /></g></g></svg>