<?xml version="1.0" encoding="UTF-8" standalone="no"?>
<svg
   xmlns:dc="http://purl.org/dc/elements/1.1/"
   xmlns:cc="http://creativecommons.org/ns#"
   xmlns:rdf="http://www.w3.org/1999/02/22-rdf-syntax-ns#"
   xmlns:svg="http://www.w3.org/2000/svg"
   xmlns="http://www.w3.org/2000/svg"
   viewBox="0 0 853.33331 853.33331"
   height="853.33331"
   width="853.33331"
   xml:space="preserve"
   id="svg2"
   version="1.1"><metadata
     id="metadata8"><rdf:RDF><cc:Work
         rdf:about=""><dc:format>image/svg+xml</dc:format><dc:type
           rdf:resource="http://purl.org/dc/dcmitype/StillImage" /></cc:Work></rdf:RDF></metadata><defs
     id="defs6" /><g
     transform="matrix(1.3333333,0,0,-1.3333333,0,853.33333)"
     id="g10"><g
       transform="scale(0.1)"
       id="g12"><path
         id="path14"
         style="fill:#1b5065;fill-opacity:1;fill-rule:nonzero;stroke:none"
         d="m 832.766,4199.05 c -5.411,0 -10.903,1.1 -16.157,3.4 -20.281,8.94 -29.5,32.67 -20.562,52.95 10.808,24.52 22.012,48.88 33.555,73.03 9.586,20.01 33.613,28.43 53.55,18.82 20,-9.57 28.442,-33.57 18.852,-53.53 -11.191,-23.37 -22.016,-46.95 -32.473,-70.68 -6.633,-15.05 -21.347,-23.99 -36.765,-23.99 z m -78.02,-199.37 c -4.336,0 -8.723,0.73 -13.066,2.19 -20.965,7.22 -32.09,30.06 -24.903,51.03 11.778,34.23 24.407,68.58 37.52,102.09 8.086,20.64 31.445,30.79 52.019,22.73 20.649,-8.1 30.832,-31.36 22.739,-52.01 -12.7,-32.46 -24.934,-65.71 -36.328,-98.95 -5.723,-16.62 -21.301,-27.08 -37.981,-27.08 z m -85.195,-309.45 c -2.754,0 -5.496,0.26 -8.262,0.89 -21.726,4.49 -35.637,25.76 -31.086,47.46 14.746,70.62 32.695,141.5 53.352,210.76 6.347,21.28 28.691,33.36 49.953,27.03 21.238,-6.33 33.316,-28.7 26.988,-49.97 -20.016,-67.12 -37.398,-135.81 -51.719,-204.23 -3.953,-18.92 -20.64,-31.94 -39.226,-31.94 z m -54.817,-531.51 c -22.168,0 -40.144,17.98 -40.144,40.15 0,145.11 11.973,290.74 35.566,432.87 3.633,21.9 24.082,36.64 46.192,33.03 21.843,-3.66 36.64,-24.3 33.007,-46.21 -22.871,-137.79 -34.472,-278.98 -34.472,-419.69 0,-22.17 -17.981,-40.15 -40.149,-40.15" /><path
         id="path16"
         style="fill:#1b5065;fill-opacity:1;fill-rule:nonzero;stroke:none"
         d="M 3197.41,576.609 C 1751.19,576.609 574.59,1750 574.59,3200 h 80.293 c 0,-1390 1140.587,-2543.109 2542.527,-2543.109 699.26,0 1351.02,277.73 1835.2,782.549 l 57.96,-55.43 C 4591.07,863.25 3918.75,576.609 3197.41,576.609" /><path
         id="path18"
         style="fill:#1b5065;fill-opacity:1;fill-rule:nonzero;stroke:none"
         d="m 4870.01,1501.26 379.07,128.65 -78.06,-392.62 z" /><path
         id="path20"
         style="fill:#1b5065;fill-opacity:1;fill-rule:nonzero;stroke:none"
         d="m 5745.16,2732.39 c -2.2,0 -4.4,0.21 -6.64,0.57 -21.85,3.61 -36.64,24.31 -33.01,46.16 22.84,137.68 34.44,278.93 34.44,419.75 0,22.16 17.99,40.14 40.15,40.14 22.17,0 40.14,-17.98 40.14,-40.14 0,-145.22 -11.94,-290.9 -35.54,-432.92 -3.26,-19.61 -20.29,-33.56 -39.54,-33.56 z m -72.3,-312.7 c -3.82,0 -7.65,0.52 -11.5,1.68 -21.24,6.32 -33.32,28.69 -27,49.92 20.02,67.12 37.41,135.85 51.72,204.23 4.55,21.74 25.96,35.8 47.49,31.1 21.72,-4.55 35.63,-25.82 31.09,-47.52 -14.75,-70.57 -32.71,-141.5 -53.35,-210.77 -5.21,-17.4 -21.17,-28.64 -38.45,-28.64 z m -69.71,-202.45 c -4.85,0 -9.79,0.89 -14.61,2.72 -20.64,8.1 -30.83,31.36 -22.79,52.01 12.92,32.99 25.15,66.28 36.36,98.95 7.22,20.96 30.06,32 51.04,24.94 20.96,-7.22 32.1,-30.06 24.92,-51.07 -11.61,-33.67 -24.24,-68.01 -37.51,-102.04 -6.2,-15.84 -21.36,-25.51 -37.41,-25.51 z m -68.97,-159.79 c -5.74,0 -11.55,1.2 -17.09,3.81 -20.05,9.47 -28.64,33.4 -19.18,53.42 9.36,19.87 18.5,39.89 27.36,60.01 8.97,20.33 32.7,29.43 52.92,20.6 20.32,-8.94 29.51,-32.67 20.58,-52.96 -9.18,-20.75 -18.58,-41.39 -28.26,-61.89 -6.85,-14.53 -21.27,-22.99 -36.33,-22.99" /><path
         id="path22"
         style="fill:#1b5065;fill-opacity:1;fill-rule:nonzero;stroke:none"
         d="m 5820.24,3200 h -80.29 c 0,1420 -1140.58,2541.96 -2542.54,2541.96 -698.33,0 -1349.49,-277.67 -1833.53,-781.34 l -57.88,55.47 c 499.29,519.59 1171.03,806.22 1891.41,806.22 1446.22,0 2622.83,-1182.31 2622.83,-2622.31" /><path
         id="path24"
         style="fill:#1b5065;fill-opacity:1;fill-rule:nonzero;stroke:none"
         d="m 1526.43,4898.04 -379.19,-128.28 78.46,392.52 z" /><path
         id="path26"
         style="fill:#1b5065;fill-opacity:1;fill-rule:nonzero;stroke:none"
         d="M 4228.23,2100 H 2057.4 V 3124.64 L 4242.05,4194.56 Z M 2367.32,4485.03 c 9.29,9.72 35.81,18.4 88.62,2.77 l 41.65,-975.51 -171.24,-84.26 z m 384.4,111.45 42.78,-938.14 -176.52,-86.82 42.39,1022.4 c 9.28,8.31 36.12,17.82 91.35,2.56 z m 1688.63,-218.03 c -19.55,39.72 -67.64,56.09 -107.47,36.59 l -1462.32,-719.27 -43.68,957.48 -24.57,8.93 c -174.04,62.05 -214.86,-36.75 -216.51,-40.97 l -2.32,-5.34 -25.93,-626.12 -23.68,555.4 -24.7,9.51 c -67.77,25.82 -123.54,29.32 -165.8,9.98 -38.82,-17.77 -51.37,-47.35 -53.51,-53.21 l -2.15,-5.07 -43.31,-1118.63 -387.14,-190.43 c -39.78,-19.55 -56.2,-67.69 -36.6,-107.47 13.96,-28.39 42.45,-44.9 72.08,-44.9 11.93,0 16.16,2.66 27.55,8.25 l 57.11,31.94 V 2020 h 2330.29 l 23.05,2214.4 73.02,36.23 c 39.78,19.57 56.19,68.04 36.59,107.82" /><path
         id="path28"
         style="fill:#1b5065;fill-opacity:1;fill-rule:nonzero;stroke:none"
         d="m 2794.38,2581.79 15.07,16.31 c 10.42,10.48 20.83,21.02 32.04,30.63 10.82,10.06 22.58,19.03 34.14,28.15 11.92,8.71 23.75,17.43 36.27,25.17 12.13,8.31 25.14,15.13 37.8,22.55 13.12,6.51 25.9,13.73 39.36,19.39 l 20.04,8.82 c 6.72,2.82 13.61,5.22 20.42,7.84 13.52,5.46 27.44,9.62 41.24,14.06 13.8,4.55 28.02,7.6 41.95,11.47 14.09,3.33 28.28,6.01 42.39,9.02 l 0.5,0.13 0.78,0.1 c 14.07,1.91 30.58,6.25 45.64,11.24 15.33,5.1 30.47,11.11 45.19,18.19 14.79,6.9 29.14,14.82 43.09,23.39 13.91,8.71 27.55,17.88 40.47,28.07 6.63,4.92 13.01,10.14 19.2,15.55 6.38,5.23 12.47,10.8 18.43,16.5 6.12,5.59 12.05,11.34 17.69,17.41 5.79,5.93 11.59,11.86 16.92,18.18 11.13,12.29 21.3,25.43 31.49,38.58 9.67,13.54 19.42,27.03 28.1,41.3 9.29,13.85 16.93,28.75 25.24,43.23 7.45,15 15.53,29.69 22.03,45.16 3.38,7.66 6.93,15.27 10.17,23 l 9.2,23.42 c 6.48,15.52 11.16,31.7 16.78,47.54 5.23,16.02 9.57,32.28 14.41,48.43 l 11.99,49.11 9.9,49.64 8.08,50.02 c 0,0 -151.28,-131.7 -398.76,-159.27 -489.35,-54.5 -495.75,-419.96 -495.75,-419.96 -3.21,-116.21 20.49,-205.33 58.02,-273.75 8.2,11.87 17.02,23.31 26.08,34.45 4.79,5.64 9.46,11.39 14.39,16.93" /><path
         id="path30"
         style="fill:#1b5065;fill-opacity:1;fill-rule:nonzero;stroke:none"
         d="m 3590.4,3383.39 -5.91,-50.34 -7.84,-50.18 -9.9,-49.82 c -4.13,-16.41 -7.81,-32.98 -12.37,-49.34 -4.97,-16.21 -9.04,-32.78 -14.89,-48.72 l -8.32,-24.13 c -2.93,-7.96 -6.19,-15.84 -9.3,-23.75 -5.92,-16 -13.48,-31.31 -20.43,-46.89 -7.82,-15.16 -15.03,-30.71 -23.92,-45.35 -8.28,-14.97 -17.7,-29.32 -27.05,-43.69 -9.93,-13.99 -19.86,-28.05 -30.89,-41.27 -5.28,-6.85 -11.04,-13.25 -16.76,-19.69 -5.62,-6.55 -11.52,-12.83 -17.64,-18.94 -5.96,-6.23 -12.12,-12.31 -18.56,-18.09 -6.27,-5.96 -12.75,-11.73 -19.47,-17.2 -13.15,-11.31 -27.15,-21.64 -41.48,-31.46 -14.42,-9.75 -29.32,-18.82 -44.84,-26.92 -15.43,-8.21 -31.43,-15.46 -47.88,-21.7 -16.79,-6.22 -32.8,-11.5 -52.13,-15 l 1.26,0.21 c -13.36,-3.5 -26.79,-6.64 -40.04,-10.35 -13.11,-4.29 -26.44,-7.74 -39.31,-12.6 -12.86,-4.79 -25.85,-9.23 -38.32,-14.9 -6.27,-2.77 -12.59,-5.28 -18.8,-8.18 l -18.35,-9.07 c -12.35,-5.8 -23.92,-13.04 -35.81,-19.57 -11.4,-7.4 -23.19,-14.19 -34.04,-22.35 -11.24,-7.58 -21.75,-16.1 -32.3,-24.52 -10.19,-8.83 -20.63,-17.46 -30.09,-27.08 -9.84,-9.19 -18.9,-19.18 -27.96,-29.11 l -13.05,-15.37 c -4.22,-5.23 -8.23,-10.63 -12.35,-15.92 -8.03,-10.79 -15.76,-21.74 -22.87,-33.11 -4.13,-6.4 -8,-12.91 -11.82,-19.49 123,-161.06 326.5,-173.45 326.5,-173.45 464.97,6.22 494.03,419.49 494.03,419.49 39.72,323.73 -17.1,657.85 -17.1,657.85" /><path
         id="path32"
         style="fill:#1b5065;fill-opacity:1;fill-rule:nonzero;stroke:none"
         d="m 2806.45,2508.09 c -8.52,-12.13 -16.55,-24.62 -24.02,-37.43 -7.64,-12.75 -14.59,-25.9 -21.15,-39.23 -6.55,-13.35 -12.57,-26.98 -18.12,-40.8 -5.52,-13.86 -10.42,-28.02 -14.84,-42.39 -4.39,-14.64 -8.17,-28.54 -11.07,-45.17 -0.11,-0.47 -0.19,-1.01 -0.24,-1.46 -2.27,-17.51 10.11,-33.53 27.62,-35.8 17.52,-2.25 33.53,10.13 35.81,27.64 l 0.06,0.58 c 1.46,11.24 4.35,24.83 7.57,37.37 3.35,12.76 7.16,25.51 11.58,38.11 4.38,12.6 9.26,25.04 14.67,37.27 5.38,12.26 11.13,24.36 17.51,36.17 2.69,5.13 5.53,10.2 8.4,15.21 -11.85,15.56 -22.94,32.52 -33.05,50.95 -0.24,-0.35 -0.5,-0.66 -0.73,-1.02" /></g></g></svg>